<?xml version="1.0" encoding="UTF-8" standalone="no"?>
<!-- Created with Inkscape (http://www.inkscape.org/) -->

<svg
   xmlns:dc="http://purl.org/dc/elements/1.1/"
   xmlns:cc="http://creativecommons.org/ns#"
   xmlns:rdf="http://www.w3.org/1999/02/22-rdf-syntax-ns#"
   xmlns:svg="http://www.w3.org/2000/svg"
   xmlns="http://www.w3.org/2000/svg"
   xmlns:sodipodi="http://sodipodi.sourceforge.net/DTD/sodipodi-0.dtd"
   xmlns:inkscape="http://www.inkscape.org/namespaces/inkscape"
   width="271.26901mm"
   height="58.999931mm"
   viewBox="0 0 961.18942 209.05488"
   id="svg10742"
   version="1.1"
   inkscape:version="0.91 r13725"
   sodipodi:docname="logo.svg">
  <defs
     id="defs10744" />
  <sodipodi:namedview
     id="base"
     pagecolor="#ffffff"
     bordercolor="#666666"
     borderopacity="1.0"
     inkscape:pageopacity="0.0"
     inkscape:pageshadow="2"
     inkscape:zoom="0.98994949"
     inkscape:cx="518.61364"
     inkscape:cy="55.091682"
     inkscape:document-units="px"
     inkscape:current-layer="layer1"
     showgrid="false"
     inkscape:window-width="1920"
     inkscape:window-height="1017"
     inkscape:window-x="-8"
     inkscape:window-y="-8"
     inkscape:window-maximized="1"
     fit-margin-top="10"
     fit-margin-left="10"
     fit-margin-right="10"
     fit-margin-bottom="10" />
  <metadata
     id="metadata10747">
    <rdf:RDF>
      <cc:Work
         rdf:about="">
        <dc:format>image/svg+xml</dc:format>
        <dc:type
           rdf:resource="http://purl.org/dc/dcmitype/StillImage" />
        <dc:title></dc:title>
      </cc:Work>
    </rdf:RDF>
  </metadata>
  <g
     inkscape:label="Layer 1"
     inkscape:groupmode="layer"
     id="layer1"
     transform="translate(1213.9707,-650.64306)">
    <path
       style="fill:#000000"
       d="m -464.71759,821.6629 c 10.35553,-2.98195 16.25351,-6.43784 22.49794,-13.18257 7.45018,-8.04709 9.86978,-14.59276 9.91858,-26.8324 0.0429,-10.75975 -1.7267,-16.01541 -7.94937,-23.60936 -4.52466,-5.52175 -16.07212,-13.21127 -26.06626,-17.35769 -17.26943,-7.16481 -20.39764,-9.58109 -20.39764,-15.75546 0,-5.62433 5.99341,-9.25824 15.29216,-9.27191 5.78002,-0.008 18.29483,2.83699 24.45043,5.55929 3.02845,1.33932 6.12528,2.43513 6.88184,2.43513 1.91142,0 2.02495,-31.21617 0.11929,-32.79773 -5.48685,-4.55368 -45.20494,-6.53685 -57.24372,-2.85824 -9.69699,2.96304 -17.09968,7.47316 -23.5051,14.32057 -7.73891,8.27292 -10.46783,16.26078 -9.7926,28.664 0.50631,9.30021 2.86307,15.60446 8.32565,22.27082 4.21458,5.14333 14.78145,12.23034 22.97205,15.40693 16.1568,6.26615 21.5,10.40998 21.5,16.67396 0,11.4662 -18.90997,12.22437 -40,1.60375 -5.225,-2.63123 -9.84781,-4.9375 -10.27291,-5.12503 -0.4251,-0.18753 -0.6501,7.89344 -0.5,17.95773 l 0.27291,18.2987 7.26339,2.27393 c 10.87409,3.40434 18.231,4.22914 34.23661,3.83835 11.06304,-0.27011 16.27697,-0.86572 21.99675,-2.51277 z m -50.71125,-3.01585 c -11.48967,-3.01118 -11.2855,-2.79347 -11.2855,-12.0343 0,-5.24469 0.38515,-7.96482 1.12775,-7.96482 1.14651,0 20.70911,18.23756 22.17194,20.67016 1.13684,1.89049 -3.15488,1.65078 -12.01419,-0.67104 z m 4.32102,-11.08451 c -6.93358,-7.19697 -12.60652,-13.89882 -12.60652,-14.89301 0,-2.76271 2.71748,-3.20638 6.81995,-1.11346 17.49266,8.9241 37.73676,8.18373 41.79479,-1.52851 3.42793,-8.2042 -0.82441,-14.73316 -13.44894,-20.64921 l -8.36043,-3.91783 2.81457,-2.93778 c 1.54801,-1.61578 3.39336,-2.81111 4.10076,-2.65629 1.87856,0.41112 34.2793,31.71648 34.2793,33.1204 0,0.65388 -5.96853,7.14512 -13.26341,14.42497 l -13.2634,13.23611 -8.13007,0 -8.13007,0 z m 36.39348,11.35246 c 0,-1.26864 20.40302,-21.26707 21.69734,-21.26707 1.74022,0 8.30266,5.93963 8.30266,7.5147 0,3.3415 -11.8836,10.30362 -22.33868,13.08734 -5.86093,1.5605 -7.66132,1.71678 -7.66132,0.66503 z m 29.11869,-21.11721 c -1.71528,-2.16572 -3.11869,-4.53486 -3.11869,-5.26477 0,-1.40446 10.88687,-12.88509 12.2187,-12.88509 0.42971,0 0.76748,2.3625 0.75058,5.25 -0.0319,5.44405 -3.55401,15.80095 -5.60059,16.46852 -0.62221,0.20296 -2.53471,-1.40294 -4.25,-3.56866 z m -24.01169,-22.67091 c -8.34298,-8.53658 -15.68591,-16.65542 -16.31763,-18.04188 -1.06876,-2.34569 -0.70384,-2.96956 5.25214,-8.97895 3.52039,-3.55197 7.00172,-6.45812 7.73629,-6.45812 2.60749,0 20.02483,9.24081 25.46462,13.51032 3.9871,3.12933 6.39217,6.07199 8.64119,10.57267 1.71401,3.43005 3.11639,6.89126 3.11639,7.69157 0,2.06105 -14.99707,17.22544 -17.03539,17.22544 -0.9287,0 -8.51463,-6.98447 -16.85761,-15.52105 z m -37.107,-14.13982 c -13.13396,-7.71095 -19.18502,-16.8712 -19.85053,-30.05029 -0.20244,-4.00886 0.0239,-7.28884 0.50295,-7.28884 0.47906,0 8.05244,7.19195 16.82972,15.98211 l 15.95869,15.98211 -3.92336,4.01789 c -2.15785,2.20984 -4.16954,4.01363 -4.47042,4.00843 -0.30088,-0.005 -2.57205,-1.19834 -5.04705,-2.65141 z m 2.38938,-20.58913 c -13.58656,-13.99401 -19.38938,-20.83809 -19.38938,-22.86862 0,-1.94846 22.89707,-24.55663 26.06507,-25.73619 1.41078,-0.52528 5.01078,-1.25041 8,-1.61138 l 5.43493,-0.65632 11.5,11.67692 11.5,11.67692 -5.94422,-0.56346 c -21.30451,-2.01947 -31.7846,14.43452 -15.6014,24.49455 2.77509,1.72509 5.04562,3.42085 5.04562,3.76836 0,1.36451 -11.65234,12.06922 -13.13765,12.06922 -0.8688,0 -6.93164,-5.5125 -13.47297,-12.25 z m 58.06502,-23.15968 c -1.89179,-1.38332 -1.89247,-1.44878 -0.0361,-3.5 2.6803,-2.9617 3.58174,-2.60691 3.58174,1.40968 0,3.83628 -0.64102,4.2142 -3.5456,2.09032 z m -19.2044,-14.17447 c -6.7375,-6.36909 -12.25,-11.9932 -12.25,-12.49801 0,-1.98269 21.34134,-0.51386 31.25,2.15079 l 3.75,1.00846 0,5.82461 c 0,5.69257 -0.11238,5.92973 -4.95716,10.46146 -2.72644,2.55026 -5.08894,4.63594 -5.25,4.63485 -0.16106,-10e-4 -5.80534,-5.21307 -12.54284,-11.58216 z m -57.25,6.73419 c 0,-2.1467 6.1067,-8.88684 10.03011,-11.07052 l 4.34887,-2.42049 -2.12374,2.98252 c -2.1442,3.01126 -10.76657,11.35845 -11.7329,11.35845 -0.28729,0 -0.52234,-0.38248 -0.52234,-0.84996 z m -614.99996,91.34996 0.5,-21 13.5,-0.64397 c 23.3354,-1.11314 36.682,-7.00141 47.0025,-20.73661 6.0719,-8.08102 8.3728,-16.8236 7.7547,-29.46614 -0.668,-13.66484 -3.2091,-20.26516 -10.6772,-27.73328 -3.9779,-3.97785 -7.3266,-6.25032 -11.5874,-7.86315 -11.6261,-4.40089 -19.5893,-5.10509 -54.5162,-4.821 l -32.4764,0.26415 -0.2591,65.5 c -0.1425,36.025 -0.04,66.07205 0.2268,66.77122 0.3753,0.98193 4.9855,1.2095 20.2591,1 l 19.7732,-0.27122 z m -13.3645,17.71926 c -0.3001,-0.48561 1.6677,-3.06306 4.373,-5.72767 5.4199,-5.33836 6.3938,-4.97731 5.8081,2.15325 -0.3143,3.8266 -0.3511,3.85739 -4.976,4.15625 -2.5627,0.1656 -4.905,-0.0962 -5.2051,-0.58183 z m -22.4355,-1.41926 c -0.8689,-0.86888 -1.2,-8.04941 -1.2,-26.02234 l 0,-24.82235 4.1274,-4.47765 c 2.27,-2.46271 4.6399,-4.47766 5.2663,-4.47766 0.6264,0 6.1941,5.06954 12.3726,11.26565 l 11.2337,11.26564 0,12.51118 0,12.51117 -6.7751,6.72318 -6.7751,6.72318 -8.5249,0 c -5.2971,0 -8.9793,-0.45435 -9.7249,-1.2 z m 23.0321,-52.06707 c -5.6276,-5.6469 -10.2321,-10.71878 -10.2321,-11.27085 0,-1.13729 17.1443,-18.46208 18.2698,-18.46208 0.4016,0 0.7302,3.53026 0.7302,7.84501 0,10.74269 0.9932,11.62449 12.2986,10.91917 4.6911,-0.29266 9.68,-1.21888 11.4245,-2.121 3.3824,-1.74908 9.2769,-8.33883 9.2769,-10.37102 0,-0.69969 0.3496,-1.27216 0.7768,-1.27216 1.1672,0 14.2232,13.39077 14.2232,14.58791 0,0.57075 -4.437,5.39695 -9.8599,10.72491 l -9.8599,9.68718 -13.408,0 -13.4079,0 z m 45.7679,6.94589 c 0,-1.49231 13.1164,-14.67882 14.6008,-14.67882 0.5778,0 2.1357,1.15508 3.462,2.56684 l 2.4114,2.56685 -2.4871,1.96717 c -5.8372,4.61694 -17.9871,9.73567 -17.9871,7.57796 z m -70.3333,-10.34549 c -1.2398,-1.23977 -0.7569,-14.33333 0.5286,-14.33333 1.856,0 6.8047,5.17093 6.8047,7.11037 0,1.7806 -4.5856,7.88963 -5.9222,7.88963 -0.4095,0 -1.0445,-0.3 -1.4111,-0.66667 z m 90.5076,-4.64778 c -1.1959,-1.27295 -2.1743,-2.74845 -2.1743,-3.27889 0,-1.48349 12.8556,-13.88444 13.6107,-13.12935 1.7553,1.75531 -5.8702,18.72269 -8.4144,18.72269 -0.4662,0 -1.8261,-1.0415 -3.022,-2.31445 z m -84.9585,-10.967 -5.2158,-5.28144 0,-24.21856 0,-24.21855 10.2688,0 10.2687,0 9.9813,10.02928 c 8.0386,8.07732 9.6893,10.21523 8.4812,10.98469 -0.825,0.52547 -2.0736,0.9623 -2.7748,0.97072 -1.8609,0.0224 -3.2252,4.39939 -3.2252,10.34746 l 0,5.20196 -10.7663,10.73294 c -5.9215,5.90312 -10.9994,10.73295 -11.2842,10.73295 -0.2848,0 -2.8649,-2.37665 -5.7337,-5.28145 z m 70.6082,-3.46855 c -6.3237,-6.40839 -8.8258,-9.68664 -9.3496,-12.25 -1.372,-6.71377 -6.2095,-12.82899 -11.469,-14.49829 -1.103,-0.35007 -2.0054,-1.21889 -2.0054,-1.93071 0,-1.77544 19.4277,-19.571 21.3659,-19.571 3.7855,0 12.946,4.47493 17.4499,8.52432 6.6851,6.01049 9.4001,12.46292 9.9786,23.71533 l 0.4493,8.73965 -7.7953,8.01035 c -4.2874,4.40569 -8.2891,8.01035 -8.8927,8.01035 -0.6035,0 -4.9829,-3.9375 -9.7317,-8.75 z m -38.3833,6.45607 c -0.2731,-0.71167 -0.3715,-8.02417 -0.2186,-16.25 l 0.2779,-14.95607 6.5349,0 c 12.5256,0 18.967,5.50613 18.9636,16.21016 0,10.45705 -6.7142,16.28984 -18.7418,16.28984 -4.2475,0 -6.4823,-0.42424 -6.816,-1.29393 z m -0.7412,-45.50595 c -5.9215,-5.93994 -10.4514,-11.11494 -10.0663,-11.5 0.8735,-0.87347 33.9664,-0.93019 38.2892,-0.0656 1.8646,0.37292 3.0498,1.16816 2.875,1.92902 -0.3394,1.47734 -18.5447,20.43646 -19.6239,20.43646 -0.3892,0 -5.5525,-4.85995 -11.474,-10.79988 z m 171.80046,102.79988 0,-15.5 -22.5,-0.5 -22.49996,-0.5 -0.5,-50.5 -0.5,-50.5 -20,0 -20,0 -0.2591,65.5 c -0.1425,36.025 -0.042,66.06734 0.2227,66.76076 0.3795,0.99285 9.5718,1.20535 43.2591,1 l 42.77726,-0.26076 z m -34.49996,11.70895 c 0,-1.77575 22.41377,-22.70895 24.31512,-22.70895 0.81271,0 2.89189,1.61073 4.62041,3.5794 3.04494,3.468 3.13375,3.83367 2.85359,11.75 l -0.28916,8.1706 -15.75,0.27539 c -12.64507,0.22111 -15.74996,0.0109 -15.74996,-1.06644 z m -48,-9.4392 0,-9.73025 9.5,9.4605 c 5.225,5.20327 9.5,9.58189 9.5,9.73025 0,0.14836 -4.275,0.26975 -9.5,0.26975 l -9.5,0 z m 12.5571,-3.21244 c -11.06,-11.08466 -12.7806,-13.22731 -11.9855,-14.92536 0.9007,-1.92361 30.7001,-31.13195 31.7619,-31.13195 0.2908,0 0.6723,7.17873 0.8476,15.95273 0.2274,11.3767 0.691,16.32485 1.616,17.25 0.8965,0.89648 5.8969,1.45175 16.18518,1.79727 l 14.88795,0.5 -11.18514,11.78979 -11.18509,11.7898 -9.0145,-0.0398 -9.0144,-0.0398 z m 64.94286,-10.05731 c -0.33992,-0.55 -0.14148,-1 0.44098,-1 0.58246,0 1.05902,0.45 1.05902,1 0,0.55 -0.19844,1 -0.44098,1 -0.24254,0 -0.7191,-0.45 -1.05902,-1 z m -77.81246,-9.64583 c -0.3782,-0.37813 -0.6875,-14.5625 -0.6875,-31.52084 0,-24.16286 0.2731,-30.83333 1.2625,-30.83333 1.6847,0 30.7375,29.15625 30.7375,30.84696 0,1.08344 -28.1959,31.02514 -30.0625,31.92387 -0.3094,0.14896 -0.8719,-0.0385 -1.25,-0.41666 z m 16.3718,-51.79477 c -14.1269,-14.14637 -16.2883,-16.71709 -15.4887,-18.42188 0.5112,-1.0897 5.9474,-6.74143 12.0805,-12.5594 10.8448,-10.28757 11.2774,-10.57812 15.75,-10.57812 l 4.5989,0 0,29 c 0,15.95 -0.1177,29 -0.2614,29 -0.1438,0 -7.6495,-7.39827 -16.6793,-16.4406 z m -16.0593,-33.0594 0,-8.5 8.5,0 c 4.675,0 8.5,0.34806 8.5,0.77346 0,0.97867 -15.2908,16.22654 -16.2722,16.22654 -0.4003,0 -0.7278,-3.825 -0.7278,-8.5 z m 131.73624,120.25 c 0.53964,-0.6875 1.96264,-5.075 3.16223,-9.75 3.71286,-14.46966 1.12625,-13 22.88005,-13 12.75964,0 19.18875,0.36731 19.9619,1.14046 0.62725,0.62725 2.15312,5.46475 3.39082,10.75 1.23769,5.28525 2.66959,10.17204 3.18198,10.85954 0.69324,0.93014 6.25887,1.25 21.75017,1.25 11.45019,0 21.03745,-0.35421 21.30501,-0.78713 0.49115,-0.7947 -41.18075,-129.64392 -42.67891,-131.96287 -0.60961,-0.94359 -6.76864,-1.25 -25.1261,-1.25 -18.27431,0 -24.55801,0.31068 -25.28202,1.25 -1.22879,1.5942 -45.28141,129.31242 -45.28141,131.28075 0,1.24542 3.18058,1.46925 20.87756,1.46925 15.51208,0 21.12971,-0.32125 21.85872,-1.25 z m 66.65399,-2.92754 c -0.78176,-1.26492 17.55021,-18.96919 18.82884,-18.18413 1.18801,0.72942 5.89959,16.60997 5.35164,18.0379 -0.68096,1.77455 -23.09037,1.91007 -24.18048,0.14623 z m -100.69882,-2.62263 -2.68274,-2.80017 8.48647,-24.44983 c 4.66755,-13.44741 8.73503,-25.0998 9.03884,-25.8942 0.3788,-0.99047 5.25255,3.24796 15.50918,13.4875 8.22624,8.21252 14.9568,15.49395 14.9568,16.18095 0,0.68699 -1.5912,1.91392 -3.53599,2.72651 -2.43077,1.01564 -4.00037,2.58885 -5.02171,5.03326 -0.81715,1.95571 -4.68316,6.9219 -8.59114,11.03599 l -7.10542,7.48016 -9.18578,0 c -8.75537,0 -9.31148,-0.1312 -11.86851,-2.80017 z m 26.30855,1.87275 c 0,-1.15368 5.13274,-5.27317 5.77276,-4.63315 0.25709,0.25708 0.17982,1.61339 -0.17172,3.014 -0.47002,1.87271 -1.29564,2.54657 -3.12009,2.54657 -1.36452,0 -2.48095,-0.41734 -2.48095,-0.92742 z m 62.69874,0.17742 c -0.23061,-0.4125 -1.42613,-4.88662 -2.65671,-9.94248 -1.23058,-5.05586 -2.83122,-10.00586 -3.55698,-11 -1.14249,-1.56498 -3.20109,-1.85107 -15.34171,-2.13205 -19.04999,-0.44089 -19.23408,-0.72832 -7.57674,-11.8298 4.91337,-4.67909 10.36315,-9.1384 12.11062,-9.90957 1.74747,-0.77116 3.48329,-2.42227 3.85737,-3.66911 0.89254,-2.97493 8.4458,-10.76699 10.43702,-10.76699 0.85535,0 7.68285,6.1875 15.17223,13.75 11.26942,11.37946 13.89518,14.59647 15.23037,18.65986 l 1.61333,4.90986 -11.18845,11.34014 c -9.69556,9.827 -11.62161,11.34014 -14.43476,11.34014 -1.78546,0 -3.43498,-0.3375 -3.66559,-0.75 z m -57.08024,-44.13133 -15.85806,-15.88133 1.68529,-5.07395 c 1.46549,-4.41216 3.55088,-6.84053 15.989,-18.61867 7.86705,-7.44959 14.72837,-13.54472 15.2474,-13.54472 0.51903,0 2.18613,1.29683 3.70466,2.88184 l 2.76098,2.88183 -5.07389,19.74231 c -2.79063,10.85827 -5.07388,20.72145 -5.07388,21.91817 0,3.75372 1.91184,4.57585 10.64098,4.57585 4.9283,0 8.51501,0.44338 8.92267,1.10299 0.83628,1.35313 -13.39044,15.89701 -15.55034,15.89701 -0.84522,0 -8.67288,-7.1466 -17.39481,-15.88133 z m 70.28978,-5.83465 c -4.17545,-4.28121 -8.54992,-9.06564 -9.72104,-10.63206 l -2.12931,-2.84803 4.22104,-4.90147 c 2.32156,-2.69582 4.75868,-4.9017 5.41581,-4.90197 1.29735,-5.3e-4 10.60631,27.28999 10.10889,29.63561 -0.18696,0.88157 -3.22155,-1.55985 -7.89539,-6.35208 z m -53.37226,0.77427 c -0.68795,-1.11314 10.18715,-45.14763 11.47238,-46.45293 0.51228,-0.52028 1.13909,0.31662 1.49792,2 0.33937,1.59205 2.86223,11.84779 5.60636,22.79053 2.74413,10.94274 4.7555,20.50524 4.46971,21.25 -0.39332,1.02497 -3.18665,1.35411 -11.49199,1.35411 -6.0348,0 -11.23427,-0.42377 -11.55438,-0.94171 z m 26.09615,-5.84443 c -1.12773,-1.8247 -5.46728,-20.67163 -4.95176,-21.50577 0.56611,-0.91598 14.31959,12.06204 14.31959,13.51221 0,1.08981 -7.0572,8.7797 -8.05735,8.7797 -0.45354,0 -1.04325,-0.35376 -1.31048,-0.78614 z m 1.63069,-19.50544 c -8.52943,-8.70373 -9.08684,-9.53727 -10.17016,-15.20842 -2.16377,-11.32723 -2.44362,-11.97514 -5.31735,-12.31091 -2.13112,-0.24899 -2.98953,0.3244 -4.31085,2.87955 l -1.64985,3.19046 -2.01892,-2.01893 c -1.38413,-1.38413 -1.74765,-2.50367 -1.15614,-3.56063 0.47453,-0.84794 6.13648,-6.54925 12.5821,-12.66956 11.47598,-10.89679 11.8065,-11.12144 15.91749,-10.81892 l 4.19817,0.30894 5.84423,17.5 c 3.21433,9.625 6.5811,20.11733 7.4817,23.31629 l 1.63747,5.81629 -5.40038,5.50745 c -2.9702,3.0291 -6.12332,5.90556 -7.00693,6.39213 -1.2508,0.68877 -3.60485,-1.15446 -10.63058,-8.32374 z m -53.26286,-4.63449 c 0,-1.5728 10.23516,-30.51532 11.15025,-31.53018 0.86284,-0.9569 10.84975,8.01253 10.84975,9.74436 0,1.08684 -20.23251,22.7108 -21.25,22.71143 -0.4125,2.5e-4 -0.75,-0.41627 -0.75,-0.92561 z m 18.55977,-31.01353 -5.87762,-5.9396 1.74163,-4.5604 1.74164,-4.5604 15.64942,0 15.64943,0 -10.46427,10.5 c -5.75535,5.775 -10.93639,10.5 -11.51344,10.5 -0.57704,0 -3.6941,-2.67282 -6.92679,-5.9396 z m 144.83324,113.35781 c 0.92035,-2.39838 0.69608,-129.72959 -0.23107,-131.19042 -0.61818,-0.97402 -5.36102,-1.20841 -20.23469,-1 l -19.42725,0.27221 -0.25906,65.5 c -0.14249,36.025 -0.0441,66.0625 0.21861,66.75 0.35949,0.9407 5.28399,1.25 19.90208,1.25 16.79001,0 19.50671,-0.21453 20.03138,-1.58179 z m -35.72634,-3.08488 c -0.36667,-0.36666 -0.66667,-11.74608 -0.66667,-25.28759 l 0,-24.62092 4.78435,-4.71241 c 2.63139,-2.59183 5.35955,-4.71241 6.06258,-4.71241 0.70302,0 5.97507,4.56968 11.71565,10.15483 l 10.43742,10.15484 0,13.62405 0,13.62406 -6.27691,6.22111 -6.2769,6.22111 -9.55643,0 c -5.25603,0 -9.85643,-0.3 -10.22309,-0.66667 z m 28.33333,-2.83333 c 1.86578,-1.925 3.52906,-3.5 3.69617,-3.5 0.16711,0 0.30383,1.575 0.30383,3.5 0,3.36872 -0.13864,3.5 -3.69617,3.5 l -3.69616,0 z m -2.11644,-45.25 c -7.53817,-7.88466 -11.88356,-13.51057 -11.88356,-15.38544 0,-2.48688 16.3131,-19.40712 17.81551,-18.47858 1.77793,1.09882 1.67776,38.61402 -0.1031,38.61402 -0.70818,0 -3.33116,-2.1375 -5.82885,-4.75 z m -26.88356,-14.51471 c 0,-4.25441 0.36172,-7.73529 0.80383,-7.73529 0.44211,0 2.33905,1.58394 4.21543,3.51987 l 3.41159,3.51987 -4.21543,4.21542 -4.21542,4.21543 z m 5.21584,-8.01674 -5.21584,-5.28144 0,-24.71856 0,-24.71855 10.26808,0 10.26807,0 6.23193,5.78472 6.23192,5.78472 0,13.48233 0,13.48234 -10.76633,10.73294 c -5.92148,5.90312 -10.99935,10.73295 -11.28416,10.73295 -0.28481,0 -2.86496,-2.37665 -5.73367,-5.28145 z m 23.95847,-51.033 c -2.88483,-3.07077 -2.7471,-3.68555 0.82569,-3.68555 2.66667,0 3,0.33333 3,3 0,3.60289 -0.92865,3.7693 -3.82569,0.68555 z m 112.32569,123.98781 c 17.68446,-5.02068 33.56888,-17.73081 40.83339,-32.67336 5.72529,-11.77651 7.08596,-18.42335 7.06244,-34.5 -0.0167,-11.42955 -0.43241,-15.46238 -2.26405,-21.96489 -3.18073,-11.29191 -7.43765,-18.65648 -14.7236,-25.47212 -7.35578,-6.88098 -15.60626,-11.18737 -27.40818,-14.30587 -8.06528,-2.13114 -10.36672,-2.2463 -45,-2.25157 l -36.5,-0.006 -0.25906,65.5 c -0.14249,36.025 -0.0324,66.09303 0.24465,66.81785 0.40759,1.06638 7.3265,1.24544 36.25906,0.93839 29.85062,-0.3168 36.74621,-0.66077 41.75535,-2.08288 z m -41.07637,-1.79692 c -0.67327,-1.08938 21.09064,-22.72041 22.96645,-22.82623 1.35254,-0.0763 20.6088,19.14258 20.06363,20.02469 -0.26167,0.42339 -3.59714,1.47975 -7.41215,2.34745 -8.35861,1.90113 -34.51749,2.23462 -35.61793,0.45409 z m -33.42363,-1.37644 c 0,-0.825 0.3949,-1.5 0.87756,-1.5 0.48265,0 1.43775,0.675 2.12244,1.5 1.04007,1.2532 0.89568,1.5 -0.87756,1.5 -1.21995,0 -2.12244,-0.63782 -2.12244,-1.5 z m 4.71241,-3.28435 -4.71241,-4.78435 0,-16.4865 0,-16.4865 8.76978,-8.72915 c 4.82338,-4.80103 9.22295,-8.72915 9.77682,-8.72915 0.55387,0 3.99729,3.0375 7.65204,6.75 l 6.64501,6.75 0.32817,9.70166 c 0.2101,6.21098 0.79398,10.16687 1.62279,10.99461 0.77108,0.77009 4.56156,1.44131 9.37318,1.65982 l 8.07857,0.36687 -11.85755,11.88852 -11.85755,11.88852 -9.55322,0 -9.55322,0 z m 73.47663,-0.79579 c -3.37234,-2.36208 -17.18904,-18.4544 -17.18904,-20.02008 0,-0.74752 1.70773,-2.23035 3.79495,-3.29517 4.85632,-2.47751 11.39305,-9.56869 14.53368,-15.76644 1.34957,-2.66323 4.97121,-7.22315 8.04809,-10.13314 4.51526,-4.27034 5.93468,-5.10281 7.35881,-4.31581 0.97046,0.53629 6.03947,5.29019 11.26447,10.56422 l 9.5,9.58915 -3.97182,7.71904 c -5.05497,9.82411 -13.57384,18.45986 -23.17441,23.49238 -3.93043,2.0603 -7.3178,3.74599 -7.5275,3.74599 -0.20969,0 -1.39645,-0.71107 -2.63723,-1.58014 z m -40.68233,-23.54178 c -0.29385,-0.76577 -0.41557,-16.4641 -0.27049,-34.88519 l 0.26378,-33.49289 6.8306,-0.29753 c 4.02426,-0.17529 8.95444,0.32175 12,1.20978 14.94432,4.35749 22.78883,15.32908 22.94222,32.08775 0.14192,15.50506 -5.2903,26.36067 -16.18172,32.33719 -5.57956,3.06171 -7.35106,3.50741 -15.67041,3.94256 -7.42937,0.38861 -9.4908,0.20112 -9.91398,-0.90167 z m 70.38153,-21.57527 c -4.15875,-4.29155 -8.36736,-9.049 -9.35247,-10.57213 l -1.79111,-2.76932 7.8917,-8.61803 c 4.34043,-4.73991 8.86453,-9.26395 10.05355,-10.05343 1.95611,-1.29881 2.26813,-1.23682 3.27866,0.65137 1.78541,3.33608 2.44453,20.70198 1.09009,28.7209 -1.96444,11.63039 -2.36669,11.72548 -11.17042,2.64064 z m -108.22157,3.03052 c -0.84229,-0.84228 -0.8849,-30.78176 -0.045,-31.62165 0.7144,-0.71441 16.07847,13.0645 16.87133,15.13065 0.30811,0.80292 -2.65034,4.63182 -7.15731,9.26316 -7.70491,7.91753 -8.43418,8.46268 -9.66902,7.22784 z m 27.51016,-10.46795 c -2.29726,-2.82404 -4.17683,-5.42846 -4.17683,-5.78759 0,-0.35914 2.25,-2.86914 5,-5.57779 l 5,-4.92482 0,10.71241 c 0,5.89183 -0.37043,10.71241 -0.82317,10.71241 -0.45275,0 -2.70275,-2.31058 -5,-5.13462 z m 55.82317,-4.66921 c 0,-3.95789 0.31288,-7.19617 0.69528,-7.19617 1.16051,0 6.30472,5.29614 6.30472,6.49092 0,0.61421 -1.575,2.6433 -3.5,4.50908 l -3.5,3.39233 z m -74.31903,-12.0674 -8.68097,-8.87123 0,-16.92056 0,-16.92056 4.28785,-4.20821 4.28785,-4.20821 9.84393,0 9.84393,0 12.36822,11.60386 c 6.80252,6.38212 12.36822,11.91066 12.36822,12.28565 0,0.37498 -3.80012,0.66575 -8.44472,0.64614 -5.62876,-0.0238 -8.87998,0.39729 -9.75,1.26269 -0.84202,0.83753 -1.42176,4.74161 -1.63346,11 l -0.32817,9.70166 -6.64501,6.75 c -3.65475,3.7125 -7.13813,6.75 -7.74085,6.75 -0.60272,0 -5.00229,-3.99205 -9.77682,-8.87123 z m 78.16476,3.12123 c -3.00229,-3.1625 -6.46154,-7.83713 -7.68723,-10.38806 -2.36137,-4.91453 -10.61269,-13.222 -15.95684,-16.06543 -1.76091,-0.93692 -3.20166,-2.31397 -3.20166,-3.0601 0,-0.74614 4.67659,-5.95863 10.39243,-11.58331 l 10.39242,-10.2267 5.10247,1.93879 c 7.5946,2.88572 13.96071,6.90168 18.74659,11.82599 4.22042,4.34249 11.36609,17.04833 11.36609,20.21023 0,1.78734 -20.86426,23.09859 -22.61411,23.09859 -0.5948,0 -3.53787,-2.5875 -6.54016,-5.75 z m -42.64584,-42.54954 c -6.19711,-6.21474 -10.95227,-11.61474 -10.56702,-12 0.38526,-0.38525 7.03796,-0.69706 14.7838,-0.69291 14.21938,0.008 26.28813,1.31995 28.03089,3.04801 0.96808,0.9599 -18.13319,20.94444 -20.01875,20.94444 -0.52879,0 -6.0318,-5.08479 -12.22892,-11.29954 z m -44.19989,-10.20046 c 0,-0.825 0.7301,-1.5 1.62244,-1.5 1.3288,0 1.39713,0.27149 0.37756,1.5 -0.68469,0.825 -1.41479,1.5 -1.62244,1.5 -0.20766,0 -0.37756,-0.675 -0.37756,-1.5 z m 182,61.5 0,-67 -20,0 -20,0 0,67 0,67 20,0 20,0 z m -37,59 c 0,-2.2 0.36172,-4 0.80383,-4 0.97478,0 7.19617,6.30909 7.19617,7.29761 0,0.38631 -1.8,0.70239 -4,0.70239 -4,0 -4,0 -4,-4 z m 6.72318,-2.7751 -6.72318,-6.77509 0,-12.03022 0,-12.03023 11.48817,-11.3345 11.48816,-11.3345 5.26184,4.51872 5.26183,4.51871 0.26688,25.62111 0.26688,25.6211 -10.2937,0 -10.2937,0 z m -7.05651,-35.89157 c -0.99494,-0.99494 -0.80628,-40.12901 0.19644,-40.74873 1.20836,-0.74681 21.13689,18.24529 21.13689,20.14368 0,1.46505 -18.64163,21.27172 -20.02052,21.27172 -0.35538,0 -0.94615,-0.3 -1.31281,-0.66667 z m 30.40142,-17.2377 c -1.13745,-1.5974 -2.06809,-3.31896 -2.06809,-3.82569 0,-1.04203 4.26362,-5.26994 5.31445,-5.26994 0.37705,0 0.68555,2.7 0.68555,6 0,3.3 -0.41936,6 -0.93191,6 -0.51254,0 -1.86254,-1.30697 -3,-2.90437 z m -18.8344,-17.36128 -11.23369,-11.26564 0,-12.01118 0,-12.01117 6.81385,-6.76164 6.81385,-6.76163 9.93615,0.28845 9.93615,0.28846 0.2679,24.94748 0.2679,24.94747 -4.73031,4.80253 c -2.60167,2.64138 -5.20456,4.80252 -5.78421,4.80252 -0.57965,0 -6.10906,-5.06954 -12.28759,-11.26565 z m -11.23369,-44.73435 0,-4 4.20295,0 4.20295,0 -3.9059,4 c -2.14824,2.2 -4.03957,4 -4.20295,4 -0.16338,0 -0.29705,-1.8 -0.29705,-4 z m 214,101.5 0.5,-24 22.5,0 22.5,0 0.54566,24 c 0.30012,13.2 0.63762,24.12201 0.75,24.27114 0.11239,0.14913 9.09184,0.14913 19.95434,0 l 19.75,-0.27114 0,-66.5 0,-66.5 -19.75,-0.27114 c -10.8625,-0.14913 -19.84232,-0.14913 -19.95516,0 -0.11284,0.14913 -0.45034,11.29614 -0.75,24.77114 l -0.54484,24.5 -22.5,0 -22.5,0 -0.5,-24.5 -0.5,-24.5 -19.42725,-0.27221 c -14.87367,-0.20841 -19.61651,0.026 -20.23469,1 -0.93227,1.4689 -1.14877,128.79893 -0.22311,131.21118 0.54023,1.40782 3.00082,1.56964 20.25,1.33179 l 19.63505,-0.27076 z m -25.33459,20.83208 c -0.90517,-0.90517 19.30004,-21.33208 21.10055,-21.33208 1.00581,0 1.23719,2.44359 1.01787,10.75 l -0.28383,10.75 -10.55152,0.28182 c -5.80333,0.155 -10.88071,-0.0474 -11.28307,-0.44974 z m -11.66541,-27.83208 c 0,-15.125 0.26803,-27.5 0.59563,-27.5 0.84666,0 29.82702,27.94512 30.27569,29.19418 0.20422,0.56855 -5.18903,6.60744 -11.985,13.41977 -10.77011,10.79604 -12.77544,12.38605 -15.62131,12.38605 l -3.26501,0 z m 88,26.73124 c 0,-1.15524 19.3785,-20.23124 20.55205,-20.23124 0.55895,0 3.3634,2.37665 6.23211,5.28145 4.94677,5.00898 5.21584,5.55065 5.21584,10.5 l 0,5.21855 -16,0 c -8.8,0 -16,-0.34594 -16,-0.76876 z m -1,-23.48765 c 0,-10.30897 0.34688,-18.74359 0.77085,-18.74359 0.42397,0 4.80533,4.05326 9.73635,9.00724 l 8.96551,9.00723 -9.73636,9.73636 -9.73635,9.73635 z m 29.09701,3.8565 c -3.80338,-3.92409 -3.6383,-5.74925 0.9145,-10.11111 l 2.98849,-2.86316 0,8.18709 c 0,4.5029 -0.13672,8.18709 -0.30383,8.18709 -0.16711,0 -1.78673,-1.52996 -3.59916,-3.39991 z m -24.88653,-23.91861 c -8.91577,-8.97519 -16.21048,-17.10373 -16.21048,-18.06343 0,-1.74998 28.89295,-31.94952 32.3313,-33.79338 1.51157,-0.8106 2.86469,0.0513 7.75,4.93663 l 5.9187,5.9187 0,22.73424 0,22.73423 -5.65222,5.92577 c -3.10872,3.25917 -6.16401,5.92576 -6.78952,5.92576 -0.62552,0 -8.43202,-7.34334 -17.34778,-16.31852 z m -75.07245,-1.17078 c -8.32592,-8.51911 -15.13803,-16.28706 -15.13803,-17.2621 0,-1.65858 29.6539,-32.2486 31.26173,-32.2486 0.40605,0 0.73827,3.53026 0.73827,7.84501 0,10.48354 0.74909,11.15499 12.4449,11.15499 l 8.78742,0 6.88384,6.10298 c 3.78611,3.35665 6.88384,6.66032 6.88384,7.3415 0,0.68118 -2.88605,4.00983 -6.41345,7.39701 l -6.41344,6.15851 -9.43157,0 c -12.06923,0 -12.74154,0.59776 -12.74154,11.32874 0,4.21919 -0.38789,7.67126 -0.86197,7.67126 -0.47409,0 -7.67409,-6.97018 -16,-15.4893 z m 45.02864,-4.29885 c 0.18333,-0.43348 2.46207,-2.73272 5.06386,-5.10941 l 4.73054,-4.32127 5.01946,4.20253 c 2.76071,2.3114 5.01947,4.61063 5.01947,5.10942 0,0.49878 -4.5375,0.90688 -10.08333,0.90688 -5.54584,0 -9.93334,-0.35467 -9.75,-0.78815 z m 4.58333,-20.79003 c -2.6125,-2.4925 -4.75,-4.73207 -4.75,-4.97682 0,-0.24475 4.5,-0.445 10,-0.445 5.5,0 10,0.37956 10,0.84346 0,0.75664 -9.399,9.18979 -10.17941,9.13336 -0.17632,-0.0128 -2.45809,-2.0625 -5.07059,-4.555 z m -65.75,-26.67579 0,-28.74603 2.76443,0 c 2.21234,0 5.35595,2.59728 15.74079,13.00524 l 12.97637,13.00523 -15.74079,15.7408 -15.7408,15.74079 z m 87,-2.78121 c 0,-21.11356 -0.8585,-20.51274 11.47784,-8.03286 l 7.97785,8.07066 -8.957,8.99869 c -4.92634,4.94928 -9.30387,8.99869 -9.72784,8.99869 -0.42397,0 -0.77085,-8.11583 -0.77085,-18.03518 z m 28.19617,3.73757 c -1.75789,-1.81368 -3.19617,-3.75041 -3.19617,-4.30383 0,-1.11998 6.19291,-7.39856 7.29761,-7.39856 0.38631,0 0.70239,3.375 0.70239,7.5 0,4.125 -0.36172,7.5 -0.80383,7.5 -0.44211,0 -2.24211,-1.48392 -4,-3.29761 z m -93.96404,-17.96946 c -5.62767,-5.6469 -10.23213,-10.83663 -10.23213,-11.53276 0,-0.96265 2.69342,-1.19798 11.25,-0.98292 l 11.25,0.28275 0.28275,11.25 c 0.21896,8.71178 -0.0107,11.25 -1.01787,11.25 -0.71534,0 -5.90507,-4.62018 -11.53275,-10.26707 z m 77,0 c -5.62767,-5.6469 -10.23213,-10.5969 -10.23213,-11 0,-0.40311 7.2,-0.73293 16,-0.73293 l 16,0 0,6.04284 c 0,5.80892 -0.1795,6.23474 -4.63684,11 -2.55026,2.72644 -5.14581,4.95716 -5.76787,4.95716 -0.62206,0 -5.73548,-4.62018 -11.36316,-10.26707 z"
       id="path11384"
       inkscape:connector-curvature="0"
       sodipodi:nodetypes="sssssscsssssssssssscssssssssssssscsssscccssssssssssssssssssssssssscscssssscccssssscssccssscsscssscsssccsssssscscscccsssccsccsscccccscsssssssssscccsssccsscssscsssssccccccsscscsscscssssscssscscscscscssssccccccccscsccsssscssccsssccsssscscccccsssssscsssccscsscsssscssssssssssssssssssssssscssssssscssscssssssssssssscsssscsssscsssssssscsscscssssscssssssssscsssscsscsssssscsscccccsssssscscsscscssscccccscsssscssssssssscccsscccccccccssssssscsssssccscsccssssssssssccccssscsssccccccssssssscsssssscsssssssscssssssssssssscssssssscsscccccccssssscsssssssscssssssccsssssssscccccccccssssscccccccccccccsssssssssssscccccccccsssscccsssccccscscccssscccccsssscccsscscssssscssssscssssscccssscssssssscccsssssssscssscsssscscssscsssscsccssccccsscsssssssssssscsssssscssss" />
    <path
       style="fill:#b380ff;fill-opacity:1;stroke:none;stroke-width:0.25;stroke-miterlimit:4;stroke-dasharray:none;stroke-opacity:1"
       d="m -1174.8273,692.54566 c -0.1623,5.63494 -0.023,11.3227 -0.069,16.97789 0,10.54502 0,21.09003 0,31.63505 2.5696,2.89877 5.4318,5.61158 8.2435,8.3081 0.9605,0.75255 1.7706,1.86577 2.9081,2.3176 1.7498,-1.05917 3.095,-2.7223 4.6352,-4.06669 5.9217,-5.70575 11.728,-11.52915 17.5813,-17.30504 0.3154,-4.41609 -0.3582,-9.04423 1.1642,-13.30148 0.3645,-1.12841 1.135,-2.30284 2.4536,-2.33677 1.0013,-0.32823 2.7196,-0.62357 2.6667,-1.9887 -0.6028,-2.03433 -2.3951,-3.44122 -3.7046,-5.02805 -4.8888,-5.16721 -9.9599,-10.15764 -14.9457,-15.23074 -3.6288,-0.20803 -7.335,-0.0294 -10.9936,-0.0889 -3.2844,0.0512 -6.6142,-0.10186 -9.8705,0.0756 l -0.069,0.0321 z"
       id="path11395"
       inkscape:connector-curvature="0" />
    <path
       style="fill:#b380ff;fill-opacity:1;stroke:none;stroke-width:0.25;stroke-miterlimit:4;stroke-dasharray:none;stroke-opacity:1"
       d="m -1100.2717,694.43357 c -1.5381,0.30267 -2.6424,1.63838 -3.909,2.47938 -5.8352,4.80194 -11.4878,9.86938 -16.5838,15.45728 -0.7403,0.72985 -1.638,2.01368 -0.6578,2.93492 1.5428,1.35282 3.7092,1.67987 5.2598,3.02933 4.1302,3.04444 6.666,7.78712 7.8039,12.70902 1.3957,4.07768 4.7064,7.07071 7.5228,10.18588 3.4384,3.47717 6.8312,7.04535 10.6813,10.07256 0.5772,0.55455 1.4286,0.6375 1.993,0.002 4.9489,-4.0856 9.2507,-8.88625 13.8122,-13.38684 0.6262,-0.85055 1.8393,-1.4296 2.1012,-2.45459 -0.5101,-7.51204 -0.1936,-15.34197 -3.1575,-22.42313 -2.6962,-6.48363 -8.1122,-11.5161 -14.2728,-14.70837 -3.2986,-1.68734 -6.7071,-3.5448 -10.4572,-3.89794 l -0.1179,0 -0.018,3.5e-4 z"
       id="path11397"
       inkscape:connector-curvature="0" />
    <path
       style="fill:#b380ff;fill-opacity:1;stroke:none;stroke-width:0.25;stroke-miterlimit:4;stroke-dasharray:none;stroke-opacity:1"
       d="m -1165.4907,757.52334 c -1.6271,0.52837 -2.7213,2.04683 -3.9687,3.14629 -1.8482,1.93733 -3.7835,3.8483 -5.4631,5.90854 0.1105,15.01874 -0.021,30.04126 0.3142,45.0572 0.1901,1.98448 -0.05,4.188 0.9776,5.97377 1.4394,0.94906 3.3244,0.8719 4.9828,1.10792 4.4879,0.19937 9.0193,0.25822 13.4899,0.146 4.5649,-4.45286 9.0825,-8.97727 13.6294,-13.45746 0.2082,-3.66622 0.029,-7.41001 0.089,-11.10596 -0.045,-4.76809 0.091,-9.57247 -0.068,-14.31778 -6.7747,-6.71681 -13.4191,-13.60003 -20.4799,-20.02926 -1.1246,-0.7822 -2.076,-2.23457 -3.5027,-2.42926 z"
       id="path11399"
       inkscape:connector-curvature="0" />
    <path
       style="fill:#b380ff;fill-opacity:1;stroke:none;stroke-width:0.25;stroke-miterlimit:4;stroke-dasharray:none;stroke-opacity:1"
       d="m -1090.1414,757.42253 c -0.9909,0.22529 -1.7197,1.04264 -2.5073,1.63599 -3.4876,3.05689 -6.7407,6.37683 -9.8659,9.80055 -0.8694,1.0469 -1.8935,2.03612 -2.4304,3.30624 -0.2138,0.66056 0.5962,0.98408 1.124,0.93331 2.0122,-0.13888 3.9042,-0.95771 5.7645,-1.67871 4.5522,-1.9294 8.9505,-4.3176 12.7786,-7.4702 0.4185,-0.38762 0.9844,-0.64783 1.2974,-1.12662 -0.2356,-0.62072 -0.8877,-1.01256 -1.2912,-1.54036 -1.312,-1.31859 -2.5414,-2.81007 -4.2021,-3.70216 -0.2098,-0.0928 -0.4362,-0.16186 -0.6676,-0.15804 z"
       id="path11403"
       inkscape:connector-curvature="0" />
    <path
       style="fill:#b380ff;fill-opacity:1;stroke:none;stroke-width:0.25;stroke-miterlimit:4;stroke-dasharray:none;stroke-opacity:1"
       d="m -1019.3506,692.35268 c -1.9224,0.0589 -3.98,-0.0425 -5.7045,0.95913 -2.4103,1.38913 -4.3697,3.41102 -6.4335,5.24738 -5.2879,4.94497 -10.5696,9.91446 -15.4515,15.26625 -0.6743,0.8531 -1.7671,1.71413 -1.5693,2.93451 0.3615,1.548 1.5357,2.7321 2.4904,3.94516 3.8063,4.41582 8.0518,8.4228 12.1241,12.58756 5.8598,5.87691 11.714,11.7601 17.6663,17.54355 0.6254,0.30554 0.5311,-0.62605 0.5659,-0.9994 0.1629,-10.51897 0.1633,-21.04028 0.2168,-31.56041 0.037,-8.53199 0.019,-17.06405 -0.01,-25.59605 -0.1882,-0.54627 -0.9298,-0.20997 -1.3677,-0.31234 -0.8439,-0.0103 -1.6878,-0.0236 -2.5318,-0.0153 z"
       id="path11405"
       inkscape:connector-curvature="0" />
    <path
       style="fill:#b380ff;fill-opacity:1;stroke:none;stroke-width:0.25;stroke-miterlimit:4;stroke-dasharray:none;stroke-opacity:1"
       d="m -1016.4486,759.39231 c -0.8331,0.37356 -1.4465,1.12699 -2.1573,1.68899 -8.932,8.12523 -17.4508,16.69021 -25.9276,25.28514 -1.302,1.38903 -2.7159,2.70292 -3.8025,4.27352 -0.6194,0.95164 0.045,2.08629 0.5675,2.91415 2.1785,3.09966 4.9551,5.71234 7.5713,8.43291 5.5516,5.6384 11.1464,11.23414 16.729,16.84184 0.8989,0.20395 1.8723,0.0406 2.8004,0.1002 5.1504,0.0238 10.3007,0.0479 15.451,0.0719 0.6535,-0.36673 1.0688,-1.08394 1.6309,-1.58503 6.9591,-7.34747 13.92718,-14.68639 20.89198,-22.02842 0.2945,-0.60888 -0.58448,-0.52602 -0.9559,-0.53944 -7.59614,-0.2914 -15.21028,-0.41359 -22.78868,-0.9057 -2.2678,-0.21692 -4.5744,-0.30363 -6.7615,-0.99557 -0.913,-0.29266 -0.985,-1.42574 -1.1842,-2.2146 -0.596,-3.77845 -0.6165,-7.62195 -0.7775,-11.45658 -0.2048,-6.18405 -0.2366,-12.38427 -0.7346,-18.55608 -0.1219,-0.40613 0.046,-1.27555 -0.5523,-1.32725 z"
       id="path11407"
       inkscape:connector-curvature="0" />
    <path
       style="fill:#b380ff;fill-opacity:1;stroke:none;stroke-width:0.25;stroke-miterlimit:4;stroke-dasharray:none;stroke-opacity:1"
       d="m -970.81421,794.39213 c -0.64409,-0.0588 -1.03417,0.6786 -0.70365,1.20606 0.3052,0.52572 0.7154,1.27549 1.41305,1.25767 0.72397,-0.24945 0.79578,-1.31477 0.4255,-1.88982 -0.23658,-0.38208 -0.68798,-0.60577 -1.1349,-0.57391 z"
       id="path11409"
       inkscape:connector-curvature="0" />
    <path
       style="fill:#b380ff;fill-opacity:1;stroke:none;stroke-width:0.25;stroke-miterlimit:4;stroke-dasharray:none;stroke-opacity:1"
       d="m -935.95976,762.28127 c -0.56369,0.0334 -0.57512,0.75644 -0.7714,1.14344 -5.79269,16.4917 -11.49767,33.01422 -17.23637,49.52486 -0.0234,0.44358 0.49825,0.65644 0.72267,0.98947 1.26469,1.26532 2.42105,2.66008 3.84793,3.75006 1.61718,1.08014 3.64835,1.09815 5.52143,1.19228 4.62915,0.0627 9.2593,0.0372 13.88886,0.0583 0.4777,-0.19855 0.74037,-0.72428 1.13095,-1.05502 2.79634,-2.97544 5.65789,-5.89111 8.38843,-8.92751 2.14919,-2.48302 4.26748,-5.02038 5.98705,-7.8261 0.66603,-1.24558 1.18131,-2.60612 2.18961,-3.63196 1.03526,-1.1544 2.5008,-1.85102 3.90225,-2.49743 1.03665,-0.52146 2.08558,-1.15535 2.77534,-2.1109 0.20682,-0.29478 0.27965,-0.67371 -0.002,-0.95219 -1.08836,-1.59947 -2.45633,-2.98522 -3.73897,-4.42695 -5.44176,-5.87107 -11.09429,-11.54403 -16.82978,-17.12725 -2.58377,-2.45813 -5.13468,-4.97 -7.96409,-7.14907 -0.55555,-0.3761 -1.12322,-0.8734 -1.81169,-0.95406 z"
       id="path11411"
       inkscape:connector-curvature="0" />
    <path
       style="fill:#b380ff;fill-opacity:1;stroke:none;stroke-width:0.25;stroke-miterlimit:4;stroke-dasharray:none;stroke-opacity:1"
       d="m -916.33586,706.86217 c -0.609,0.0706 -0.74769,0.79402 -0.9877,1.24659 -1.92549,4.7019 -3.60781,9.49899 -5.32505,14.27967 -1.7335,4.9472 -3.49549,9.88828 -5.00803,14.90865 -0.17319,0.71826 -0.57637,1.55589 -0.0584,2.23129 0.29268,0.47148 0.97093,0.43435 1.33915,0.0708 1.82308,-1.53447 3.46233,-3.27432 5.13897,-4.96442 4.6614,-4.82308 9.25453,-9.71656 13.65532,-14.7796 0.69634,-0.8637 1.49268,-1.67062 2.03443,-2.64482 0.28256,-0.65556 -0.30301,-1.24397 -0.63578,-1.75063 -1.77516,-2.23384 -3.89656,-4.16778 -6.06807,-6.00814 -1.18329,-0.93542 -2.34973,-1.9619 -3.76057,-2.53869 -0.10454,-0.0334 -0.21406,-0.0559 -0.32431,-0.0507 z"
       id="path11413"
       inkscape:connector-curvature="0" />
    <path
       style="fill:#b380ff;fill-opacity:1;stroke:none;stroke-width:0.25;stroke-miterlimit:4;stroke-dasharray:none;stroke-opacity:1"
       d="m -864.87257,758.44053 c -1.48227,0.31262 -2.57889,1.51414 -3.71853,2.43364 -2.44557,2.31252 -4.89772,4.74253 -6.51494,7.72707 -0.49778,1.52915 -1.61173,2.76561 -2.96222,3.60793 -2.48297,1.35082 -4.76523,3.09425 -6.91915,4.93885 -4.19956,3.62655 -8.32797,7.35854 -12.11584,11.41779 -0.95903,1.18664 -2.35555,2.48299 -2.12487,4.15455 0.59561,1.33415 2.29332,1.44366 3.54466,1.70833 5.15664,0.63048 10.36826,0.55299 15.55245,0.75269 3.31246,0.17149 6.69,0.0511 9.93759,0.83239 1.17554,0.2456 1.99761,1.2248 2.34736,2.33247 2.39059,6.22382 3.48006,12.85708 5.46878,19.2215 0.42095,1.23882 1.97429,1.17828 3.03662,1.27083 1.65871,0.12893 3.37395,-0.18385 4.73164,-1.19043 3.34434,-2.44002 6.14644,-5.52699 9.11176,-8.39578 4.32847,-4.33879 8.61994,-8.71444 12.92786,-13.07366 0.12208,-0.81776 -0.46681,-1.645 -0.6262,-2.46579 -0.91174,-2.99207 -2.03626,-5.99238 -4.06835,-8.42188 -3.90606,-4.86091 -8.36772,-9.24006 -12.73566,-13.67959 -4.27924,-4.20143 -8.50912,-8.47936 -13.15871,-12.27642 -0.52124,-0.3494 -1.04534,-0.89424 -1.71425,-0.89449 z"
       id="path11417"
       inkscape:connector-curvature="0" />
    <path
       style="fill:#b380ff;fill-opacity:1;stroke:none;stroke-width:0.25;stroke-miterlimit:4;stroke-dasharray:none;stroke-opacity:1"
       d="m -872.29803,692.54756 c -2.55155,0.0491 -4.50574,1.97243 -6.35921,3.49315 -6.16685,5.52647 -12.11691,11.29491 -17.94309,17.17828 -0.98862,1.14616 -2.27857,2.12791 -2.90351,3.53425 -0.42281,1.63095 1.05428,2.8813 2.04844,3.94101 0.54426,0.45757 0.95699,1.12014 1.59117,1.43874 0.67212,-0.55667 0.87161,-1.58102 1.35704,-2.32244 0.75012,-1.27243 1.25579,-2.90676 2.69491,-3.58458 1.03518,-0.0971 2.16684,-0.2283 3.15451,0.16104 1.46048,0.68491 1.68312,2.49675 2.11155,3.86921 1.06234,4.02522 1.48864,8.20674 2.7943,12.16965 1.38273,3.40139 4.20033,5.91535 6.65521,8.54314 3.29898,3.28034 6.46617,6.71454 10.0238,9.72052 0.85469,0.60843 1.81643,1.41068 2.92071,1.34728 1.64955,-0.75974 2.88242,-2.18687 4.23545,-3.36235 2.97154,-2.8126 5.80953,-5.76131 8.6726,-8.68303 0.11786,-0.85645 -0.43047,-1.73567 -0.57329,-2.60059 -3.2828,-11.64374 -7.29975,-23.06209 -11.06584,-34.55427 -1.12086,-3.26138 -2.12127,-6.59301 -3.31691,-9.81079 -1.19812,-0.32427 -2.56086,-0.28178 -3.82847,-0.4136 -0.75541,-0.0452 -1.51242,-0.081 -2.26937,-0.0646 z"
       id="path11419"
       inkscape:connector-curvature="0" />
    <path
       style="fill:#b380ff;fill-opacity:1;stroke:none;stroke-width:0.25;stroke-miterlimit:4;stroke-dasharray:none;stroke-opacity:1"
       d="m -800.90925,692.4731 c -0.18365,2.05845 -0.0267,4.18079 -0.0789,6.26388 0,14.46422 0,28.92844 0,43.39266 1.10536,1.38667 2.53315,2.55663 3.76338,3.85937 2.25533,2.16605 4.38007,4.48538 6.78231,6.48952 0.3783,0.41839 0.96967,0.4304 1.33224,-0.0131 4.25989,-3.74928 8.19078,-7.85523 12.2481,-11.81951 3.11613,-3.10032 6.22788,-6.2051 9.34193,-9.30763 0.2038,-1.76176 0.0292,-3.59873 0.0864,-5.38961 -0.002,-7.23968 -0.005,-14.47935 -0.007,-21.71902 -1.01494,-1.24503 -2.37137,-2.24805 -3.51907,-3.39899 -3.04928,-2.78988 -6.0319,-5.68579 -9.12301,-8.40921 -6.85552,-0.0829 -13.73892,-0.0188 -20.60515,-0.0453 l -0.11566,0.0507 -0.10556,0.0463 z"
       id="path11421"
       inkscape:connector-curvature="0" />
    <path
       style="fill:#b380ff;fill-opacity:1;stroke:none;stroke-width:0.25;stroke-miterlimit:4;stroke-dasharray:none;stroke-opacity:1"
       d="m -789.95393,758.41589 c -1.34228,0.4425 -2.39475,1.5046 -3.50915,2.33992 -2.58399,2.28082 -4.99684,4.74592 -7.46639,7.14801 -0.20379,1.71959 -0.0191,3.5163 -0.0723,5.26579 0.0884,13.58339 -0.0201,27.17061 0.34147,40.75058 0.12832,1.38676 -0.032,2.86084 0.43541,4.18644 0.76688,0.50947 1.80857,0.38154 2.69378,0.53916 5.0985,0.30256 10.2135,0.15489 15.31878,0.21543 0.94359,-0.10088 2.14886,0.36688 2.74805,-0.61664 3.98134,-3.96083 7.9626,-7.92174 11.94382,-11.8827 0.20473,-1.76158 0.0303,-3.59876 0.0882,-5.38962 -7e-5,-7.33043 -3.8e-4,-14.66086 -6.4e-4,-21.99128 -1.05724,-1.31822 -2.44407,-2.41047 -3.62914,-3.64104 -5.50094,-5.21593 -10.74804,-10.72122 -16.6225,-15.5272 -0.71529,-0.48821 -1.39067,-1.24026 -2.26939,-1.39685 z"
       id="path11423"
       inkscape:connector-curvature="0" />
    <path
       style="fill:#b380ff;fill-opacity:1;stroke:none;stroke-width:0.25;stroke-miterlimit:4;stroke-dasharray:none;stroke-opacity:1"
       d="m -725.3686,692.49385 c -2.81454,2.80509 -5.73951,5.53525 -8.48519,8.38707 -0.0979,5.97176 -0.0187,11.9792 -0.0485,17.96469 -0.002,5.36644 -0.005,10.73287 -0.007,16.09931 1.11892,1.42921 2.55279,2.65205 3.79356,4.00143 4.35175,4.37932 8.55926,8.92727 13.26732,12.93243 0.62285,0.44632 1.43948,1.38395 2.23856,0.73591 2.9618,-2.13091 5.47691,-4.81182 8.08818,-7.34479 1.97006,-2.00867 3.98977,-3.99982 5.86286,-6.0832 0.34088,-5.79936 0.22843,-11.68116 0.98471,-17.43172 0.25714,-1.07968 0.24966,-2.337 1.09475,-3.1518 1.69852,-1.09465 3.85662,-0.84353 5.77278,-1.02163 3.86345,-0.17642 7.75382,-0.0869 11.59513,-0.56487 0.4875,-0.0457 0.89561,-0.60661 0.4417,-0.98648 -3.26254,-3.61964 -6.89317,-6.88899 -10.38465,-10.28427 -4.66981,-4.44313 -9.37915,-8.84441 -14.07826,-13.25652 -1.97372,-0.18868 -4.0141,-0.0275 -6.01356,-0.0811 -4.63751,0 -9.27502,0 -13.91253,0 l -0.11695,0.0476 -0.0932,0.0379 z"
       id="path11425"
       inkscape:connector-curvature="0" />
    <path
       style="fill:#b380ff;fill-opacity:1;stroke:none;stroke-width:0.25;stroke-miterlimit:4;stroke-dasharray:none;stroke-opacity:1"
       d="m -715.22096,758.44897 c -1.26619,0.53833 -2.22039,1.63888 -3.29283,2.48029 -5.02664,4.56567 -9.73278,9.47079 -14.58033,14.2237 -0.68379,0.45723 -0.97602,1.13827 -0.81762,1.94758 0,10.68568 0,21.37136 0,32.05705 1.12371,1.42559 2.56328,2.64263 3.80921,3.98752 1.90068,1.88223 3.72715,3.87413 5.67434,5.68756 6.12207,0.10214 12.2794,0.0294 18.415,0.0645 0.83276,0.21552 1.42447,-0.28269 1.90288,-0.90132 7.53216,-7.67172 15.165,-15.25742 22.75264,-22.88049 0.18957,-0.90111 -1.2813,-0.40316 -1.83981,-0.5805 -4.53665,-0.25242 -9.12414,-0.2213 -13.57143,-1.1335 -1.01398,-0.20733 -2.25813,-0.59383 -2.45263,-1.78922 -1.02107,-4.04646 -0.92628,-8.26127 -1.15738,-12.40512 -0.11258,-2.36977 -0.10382,-4.76546 -0.28991,-7.11862 -3.74041,-3.99857 -7.61277,-7.91262 -11.64375,-11.63217 -0.90981,-0.70109 -1.73495,-1.64772 -2.8487,-2.00847 l -0.0597,10e-4 z"
       id="path11427"
       inkscape:connector-curvature="0" />
    <path
       style="fill:#b380ff;fill-opacity:1;stroke:none;stroke-width:0.25;stroke-miterlimit:4;stroke-dasharray:none;stroke-opacity:1"
       d="m -639.9974,759.06551 c -1.85991,0.21502 -3.22135,1.71515 -4.59649,2.84109 -4.26855,3.83644 -8.14332,8.23047 -10.78638,13.34824 -2.79519,4.76425 -6.5623,8.95336 -10.84721,12.43483 -2.04717,1.658 -4.71839,2.52929 -6.43119,4.58732 -0.66722,0.95724 0.31439,1.98451 0.79239,2.77669 3.83014,5.241 8.15408,10.10536 12.586,14.8412 1.84913,1.92791 3.81899,3.90756 6.31786,4.95715 1.32293,-0.35248 2.5176,-1.15292 3.77288,-1.71022 4.69868,-2.28731 9.29747,-4.87291 13.2609,-8.31278 5.93963,-5.05188 10.9995,-11.19995 14.43104,-18.22466 1.16185,-2.25255 2.37802,-4.4815 3.46017,-6.77253 -0.20849,-0.74339 -1.04556,-1.16569 -1.49334,-1.7812 -5.88833,-6.01971 -11.74267,-12.09059 -18.02041,-17.70912 -0.70853,-0.58252 -1.4502,-1.33561 -2.44622,-1.27601 z"
       id="path11429"
       inkscape:connector-curvature="0" />
    <path
       style="fill:#b380ff;fill-opacity:1;stroke:none;stroke-width:0.25;stroke-miterlimit:4;stroke-dasharray:none;stroke-opacity:1"
       d="m -652.73356,695.42245 c -1.07145,0.46326 -1.78793,1.5094 -2.67449,2.24451 -5.55099,5.46657 -11.20487,10.84624 -16.39435,16.6633 -0.7347,0.96406 -1.70614,1.83795 -2.1303,2.991 0.16568,1.3395 1.50412,2.10207 2.49233,2.84006 3.08553,1.78508 5.91981,3.93145 8.47592,6.41427 3.40219,3.2671 6.62541,6.84421 8.74871,11.09422 3.2917,5.44331 7.58294,10.24422 12.41186,14.36656 0.59451,0.44225 1.41507,1.17979 2.1515,0.57043 2.79537,-1.9662 5.12723,-4.50683 7.59728,-6.85142 4.60656,-4.63269 9.31688,-9.19674 13.43244,-14.28187 0.66166,-0.80405 1.39634,-1.79456 1.003,-2.8963 -0.96802,-3.46933 -2.80793,-6.61794 -4.54188,-9.74909 -2.2783,-3.85426 -4.63972,-7.74934 -7.95734,-10.81348 -5.20895,-5.09099 -11.77672,-8.53916 -18.54102,-11.09102 -1.35965,-0.48545 -2.69603,-1.09998 -4.07366,-1.50117 z"
       id="path11431"
       inkscape:connector-curvature="0" />
    <path
       style="fill:#b380ff;fill-opacity:1;stroke:none;stroke-width:0.25;stroke-miterlimit:4;stroke-dasharray:none;stroke-opacity:1"
       d="m -575.28423,692.40012 c -4.5272,4.49722 -9.05309,8.99501 -13.60377,13.46788 -0.20698,1.76144 -0.0307,3.59967 -0.0893,5.39085 0,6.27992 0,12.55983 0,18.83974 1.10376,1.38803 2.52892,2.56056 3.75714,3.86514 5.917,5.82458 11.68055,11.81463 17.84522,17.38087 0.70805,0.52438 1.34138,1.30308 2.18627,1.56669 1.92216,-0.79197 3.29961,-2.47387 4.82885,-3.82296 1.99065,-1.96843 4.04584,-3.90948 5.943,-5.94793 9.7e-4,-4.7382 -0.13896,-9.5111 -0.16461,-14.26303 -0.13869,-11.89541 -0.23911,-23.79125 -0.38362,-35.68659 -0.33644,-0.58825 -1.25245,-0.19796 -1.83424,-0.34597 -6.08806,-0.18635 -12.17664,-0.35521 -18.26499,-0.53174 l -0.11741,0.0465 -0.10257,0.0406 z"
       id="path11433"
       inkscape:connector-curvature="0" />
    <path
       style="fill:#b380ff;fill-opacity:1;stroke:none;stroke-width:0.25;stroke-miterlimit:4;stroke-dasharray:none;stroke-opacity:1"
       d="m -565.9561,758.21122 c -7.63421,7.55792 -15.28542,15.0978 -22.9319,22.64384 -0.20693,1.71924 -0.0308,3.51532 -0.0893,5.26433 0,6.30762 0,12.61524 0,18.92285 1.12477,1.42479 2.56597,2.64029 3.81318,3.9841 3.24035,3.28087 6.48069,6.56174 9.72104,9.84261 1.76138,0.20647 3.59932,0.0307 5.39035,0.0892 5.12064,1.2e-4 10.24128,2.4e-4 15.36192,3.7e-4 0.63074,-0.4367 0.13149,-1.50268 0.27241,-2.19817 -0.21151,-16.43787 -0.41797,-32.87638 -0.49782,-49.31542 -0.95316,-1.13428 -2.26986,-1.99405 -3.36506,-3.02107 -2.47141,-2.07287 -4.87646,-4.26685 -7.3895,-6.26382 -0.10369,-0.0934 -0.19136,0.0197 -0.28535,0.0512 z"
       id="path11435"
       inkscape:connector-curvature="0" />
    <path
       style="fill:#b380ff;fill-opacity:1;stroke:none;stroke-width:0.25;stroke-miterlimit:4;stroke-dasharray:none;stroke-opacity:1"
       d="m -487.79845,689.7005 c -3.29794,0.46038 -6.66175,0.78168 -9.83222,1.84792 -2.5539,1.36573 -4.61355,3.4723 -6.77685,5.36249 -5.70496,5.34232 -11.29838,10.81569 -16.58761,16.57232 -1.03232,1.26918 -2.33732,2.42544 -2.93896,3.97624 0.04,1.2583 0.96324,2.28736 1.59069,3.31929 3.38199,4.61457 7.37788,8.73567 11.25059,12.93357 5.62931,5.90667 11.28232,11.81444 17.3994,17.22247 0.91542,0.68687 1.76617,1.66423 2.91136,1.92292 1.4411,-0.44463 2.54423,-1.59553 3.73009,-2.48151 3.20702,-2.73515 6.33157,-5.60291 9.07858,-8.80551 0.37902,-0.39932 0.69196,-1.07294 0.14723,-1.4886 -2.49023,-2.36996 -5.72976,-3.74895 -8.20392,-6.12399 -2.43876,-2.14242 -4.36804,-5.17796 -4.34185,-8.54862 -0.0562,-3.69577 2.34262,-6.99981 5.3097,-9.01451 4.4997,-3.09214 10.085,-4.15198 15.4728,-3.89912 2.68583,0.0175 5.35862,0.38852 8.04137,0.56195 0.66006,-0.31038 -0.14718,-0.86776 -0.39268,-1.17622 -7.27216,-7.60316 -14.71494,-15.04044 -22.1091,-22.52439 -1.14387,-0.13544 -2.3431,0.25038 -3.50808,0.31375 l -0.12533,0.0154 -0.11521,0.0142 z"
       id="path11437"
       inkscape:connector-curvature="0" />
    <path
       style="fill:#b380ff;fill-opacity:1;stroke:none;stroke-width:0.25;stroke-miterlimit:4;stroke-dasharray:none;stroke-opacity:1"
       d="m -490.16649,759.61978 c -2.14674,0.44238 -3.56816,2.31211 -5.08213,3.74044 -0.59293,0.66623 -1.33508,1.23855 -1.79484,2.00504 0.10784,0.63445 1.00664,0.67422 1.46023,1.00917 4.61507,2.22339 9.43205,4.1723 13.68612,7.01868 3.39286,2.31534 6.72064,5.44922 7.50135,9.66085 0.5225,3.03898 -0.30443,6.23256 -2.04494,8.75896 -2.59798,3.37531 -6.94868,4.78234 -10.95994,5.37686 -6.22022,0.85536 -12.54804,0.0157 -18.57242,-1.64078 -4.13,-1.13419 -8.02973,-2.89108 -11.90455,-4.68281 -1.6281,-0.67007 -3.73166,-1.44244 -5.2927,-0.20395 -0.94401,0.78996 -1.01072,2.38415 -0.17887,3.28551 3.05198,4.1701 6.58825,7.96239 10.11747,11.72838 4.82264,5.07278 9.68745,10.1052 14.53738,15.15184 1.67643,0.21299 3.43318,0.0319 5.14077,0.092 3.79047,-0.0322 7.60662,0.0647 11.38098,-0.0484 4.3532,-4.23655 8.61512,-8.6122 12.92634,-12.9092 4.32068,-4.43044 8.81716,-8.71079 12.79695,-13.45782 0.41137,-0.58406 1.3561,-1.3351 0.70987,-2.08887 -2.49993,-3.04339 -5.39988,-5.73377 -8.14202,-8.55543 -7.63913,-7.58872 -15.32367,-15.14717 -23.42134,-22.24962 -0.905,-0.66539 -1.6875,-1.62951 -2.77221,-1.99013 -0.0305,-0.002 -0.061,-0.002 -0.0915,-7.4e-4 z"
       id="path11439"
       inkscape:connector-curvature="0" />
    <path
       style="fill:#b380ff;fill-opacity:1;stroke:none;stroke-width:0.25;stroke-miterlimit:4;stroke-dasharray:none;stroke-opacity:1"
       d="m -436.61114,779.43761 c -1.29631,0.51315 -2.22498,1.67483 -3.27346,2.55891 -3.07141,3.00728 -6.1508,6.06539 -8.63751,9.58635 -0.44788,0.53792 -0.55236,1.27364 -0.16425,1.87825 1.37467,2.69106 3.20482,5.19199 5.47076,7.20178 0.65325,0.55742 1.7533,1.40893 2.52538,0.56253 1.59756,-1.78259 2.34112,-4.14543 3.16928,-6.34733 1.56326,-4.73156 2.7054,-9.87659 1.55422,-14.8306 -0.0927,-0.28882 -0.28647,-0.64822 -0.64442,-0.60989 z"
       id="path11441"
       inkscape:connector-curvature="0" />
    <path
       style="fill:#b380ff;fill-opacity:1;stroke:none;stroke-width:0.25;stroke-miterlimit:4;stroke-dasharray:none;stroke-opacity:1"
       d="m -443.7303,711.54949 c -1.30716,0.23055 -2.10466,1.47503 -3.0186,2.32198 -0.46252,0.62132 -1.43298,1.33084 -1.0775,2.20274 0.76387,1.0946 1.99814,1.79377 3.14267,2.43635 0.67299,0.4207 1.71548,0.21849 1.91969,-0.6269 0.41972,-1.77328 0.41802,-3.67822 -5e-4,-5.45152 -0.13956,-0.42622 -0.45527,-0.91665 -0.96576,-0.88265 z"
       id="path11443"
       inkscape:connector-curvature="0" />
    <path
       style="fill:#b380ff;fill-opacity:1;stroke:none;stroke-width:0.25;stroke-miterlimit:4;stroke-dasharray:none;stroke-opacity:1"
       d="m -411.83975,692.4891 c -0.19424,1.88905 -0.0285,3.84777 -0.0836,5.76374 0,17.24181 0,34.48363 0,51.72544 0.51416,0.77889 1.16934,-0.65701 1.67284,-0.94849 10.05359,-10.05122 20.10719,-20.10244 30.16078,-30.15366 0.13804,-0.75301 -0.95627,-1.16542 -1.3415,-1.76174 -6.99976,-6.90807 -13.84034,-13.98214 -21.02276,-20.70228 -1.69645,-1.46886 -3.37514,-3.16116 -5.55995,-3.85938 -1.22828,-0.14543 -2.49921,-0.16101 -3.71935,-0.1075 l -0.10645,0.0439 z"
       id="path11445"
       inkscape:connector-curvature="0" />
    <path
       style="fill:#b380ff;fill-opacity:1;stroke:none;stroke-width:0.25;stroke-miterlimit:4;stroke-dasharray:none;stroke-opacity:1"
       d="m -411.08066,763.52335 c -0.63139,0.23475 -0.38545,1.13325 -0.50858,1.65854 -0.32185,8.81391 -0.22308,17.63763 -0.28945,26.45605 -0.0237,8.99741 -0.0446,17.99483 -0.0671,26.99224 0.43634,0.63227 1.50357,0.12598 2.19949,0.26392 1.23432,-0.11913 2.5953,0.25146 3.66717,-0.537 3.06063,-1.58479 5.43217,-4.17289 7.9342,-6.48547 5.47373,-5.40757 10.96762,-10.8166 15.99744,-16.64562 0.51592,-0.75783 1.39965,-1.4327 1.49423,-2.38678 -0.79977,-1.38357 -2.1069,-2.41315 -3.16763,-3.59694 -8.10374,-8.12063 -16.34545,-16.10877 -24.80537,-23.85847 -0.79478,-0.6018 -1.4427,-1.49503 -2.38213,-1.86245 l -0.02,-7.4e-4 -0.0523,0.003 z"
       id="path11447"
       inkscape:connector-curvature="0" />
    <path
       style="fill:#b380ff;fill-opacity:1;stroke:none;stroke-width:0.25;stroke-miterlimit:4;stroke-dasharray:none;stroke-opacity:1"
       d="m -342.84663,742.45501 c -2.60591,0.0608 -5.23706,-0.0883 -7.82114,0.31211 -0.59791,0.11646 -0.20973,0.70342 0.0594,0.96806 2.63801,2.83864 5.4706,5.4934 8.33018,8.10687 0.46928,0.3678 0.8758,0.87583 1.44259,1.077 1.47507,-0.73595 2.65016,-1.95041 3.92247,-2.97985 2.11786,-1.88768 4.29659,-3.73347 6.17589,-5.86484 0.3231,-0.29953 0.37833,-0.92214 -0.14771,-1.02504 -3.02626,-0.70674 -6.16671,-0.53041 -9.25135,-0.59299 -0.90343,-0.004 -1.80688,-0.003 -2.71032,-10e-4 z"
       id="path11449"
       inkscape:connector-curvature="0" />
    <path
       style="fill:#b380ff;fill-opacity:1;stroke:none;stroke-width:0.25;stroke-miterlimit:4;stroke-dasharray:none;stroke-opacity:1"
       d="m -323.14919,701.59964 c -1.02109,0.0644 -1.3169,1.23584 -1.47618,2.06526 -0.46542,2.66322 -0.25818,5.382 -0.33394,8.07128 0.0175,7.60825 -0.0997,15.22702 0.39275,22.8239 0.12145,0.78601 0.004,1.70738 0.51074,2.36357 0.57066,-0.0161 0.96498,-0.5899 1.42055,-0.89983 3.86827,-3.36071 7.40026,-7.08244 11.06246,-10.66125 2.15675,-2.17171 4.36015,-4.30066 6.45707,-6.52974 0.17218,-0.51388 -0.50699,-0.78896 -0.74445,-1.16333 -4.93422,-5.02554 -9.89928,-10.02296 -14.9599,-14.92135 -0.6707,-0.5299 -1.43811,-1.12217 -2.3291,-1.14851 z"
       id="path11451"
       inkscape:connector-curvature="0" />
    <path
       style="fill:#b380ff;fill-opacity:1;stroke:none;stroke-width:0.25;stroke-miterlimit:4;stroke-dasharray:none;stroke-opacity:1"
       d="m -340.71875,759.27515 c -0.76721,0.28592 -1.2839,1.01456 -1.9207,1.50641 -2.63154,2.44818 -5.36129,4.80694 -7.79313,7.45826 -0.31197,0.25642 -0.55904,0.88851 -0.0147,1.03638 1.62199,0.42071 3.32232,0.46066 4.9893,0.54048 3.78598,0.0262 7.5769,0.0537 11.35934,-0.12289 1.10011,-0.14437 2.24216,-0.17781 3.29684,-0.53931 0.47043,-0.19489 0.33278,-0.78023 0.0321,-1.06812 -2.25328,-2.77534 -5.17418,-4.89588 -7.85511,-7.22849 -0.66697,-0.50782 -1.25703,-1.14744 -1.9719,-1.57714 -0.0401,-0.008 -0.0814,-0.01 -0.12207,-0.006 z"
       id="path11453"
       inkscape:connector-curvature="0" />
    <path
       style="fill:#b380ff;fill-opacity:1;stroke:none;stroke-width:0.25;stroke-miterlimit:4;stroke-dasharray:none;stroke-opacity:1"
       d="m -324.23367,775.48592 c -0.48436,2.0641 -0.42044,4.21555 -0.5432,6.32308 -0.30768,10.42845 -0.20772,20.86309 -0.23055,31.29463 0.23809,0.67725 0.81877,-0.0851 1.08021,-0.35615 6.27569,-6.29455 12.59399,-12.54733 18.82666,-18.88423 0.19935,-0.51727 -0.50332,-0.7909 -0.74634,-1.16652 -4.60296,-4.64151 -9.19739,-9.29409 -13.90426,-13.83036 -1.30198,-1.15518 -2.52639,-2.42332 -3.96293,-3.4118 -0.16724,-0.12181 -0.37757,-0.13616 -0.51959,0.0313 z"
       id="path11455"
       inkscape:connector-curvature="0" />
    <path
       style="fill:#b380ff;fill-opacity:1;stroke:none;stroke-width:0.25;stroke-miterlimit:4;stroke-dasharray:none;stroke-opacity:1"
       d="m -291.99123,785.13997 c -1.86263,1.90298 -3.91499,3.642 -5.55804,5.74742 -0.88883,1.19351 -1.37402,2.84954 -0.68255,4.25311 0.89235,2.00776 2.63537,3.43092 4.11063,4.99581 0.64467,0.56478 1.19834,1.29694 1.96743,1.68823 0.59591,0.027 0.4867,-0.76161 0.54033,-1.15304 0.23366,-5.10013 0.13614,-10.20775 0.12443,-15.31128 -0.033,-0.25397 -0.29421,-0.36638 -0.50223,-0.22025 z"
       id="path11457"
       inkscape:connector-curvature="0" />
    <path
       style="fill:#7f2aff;fill-opacity:1;stroke:none;stroke-width:0.25;stroke-miterlimit:4;stroke-dasharray:none;stroke-opacity:1"
       d="m -292.54859,710.3954 c -1.41104,0.65814 -2.50327,1.86362 -3.63548,2.90982 -1.3257,1.39092 -2.82129,2.72367 -3.68245,4.46828 -0.21951,0.92072 0.65133,1.66553 1.09745,2.37593 1.68642,2.05393 3.52491,4.04976 5.73637,5.54475 0.44027,0.38497 0.99983,-0.002 1.03999,-0.52308 0.62207,-3.10572 0.47821,-6.30804 0.46488,-9.45933 -0.1186,-1.68887 -1e-4,-3.46373 -0.57832,-5.07641 -0.0873,-0.15478 -0.25812,-0.27301 -0.44244,-0.23996 z"
       id="path11459"
       inkscape:connector-curvature="0" />
    <path
       style="fill:#7f2aff;fill-opacity:1;stroke:none;stroke-width:0.25;stroke-miterlimit:4;stroke-dasharray:none;stroke-opacity:1"
       d="m -1142.5009,735.4873 c -1.1058,0.32247 -1.843,1.35241 -2.7268,2.04211 -5.0558,4.75668 -9.9694,9.67748 -14.5866,14.8629 -0.3936,0.60764 -1.32,1.20934 -1.0375,2.02647 1.8018,2.59861 4.131,4.78367 6.2686,7.10141 4.6593,4.83563 9.425,9.56676 14.1507,14.33721 1.7615,0.20508 3.599,0.0298 5.3899,0.0876 7.2052,-0.001 14.4104,-0.003 21.6157,-0.004 1.4222,-1.12783 2.633,-2.57393 3.9734,-3.82493 4.5684,-4.59421 9.2617,-9.07142 13.6653,-13.82527 0.779,-0.98889 1.8176,-1.86297 2.293,-3.04461 -0.2501,-1.03969 -1.1835,-1.77585 -1.7983,-2.61613 -3.4754,-3.91297 -7.1363,-7.67372 -11.0294,-11.17263 -0.587,-0.38916 -1.3455,-1.43541 -2.1198,-0.84291 -0.7344,0.70052 -0.3755,1.84522 -1.004,2.61761 -1.8529,2.98143 -4.3313,5.55645 -7.0472,7.76457 -2.393,1.89793 -5.5596,2.18807 -8.4521,2.68218 -3.7457,0.45075 -7.5456,0.82349 -11.3295,0.53422 -1.7022,-0.1329 -3.6488,-0.77611 -4.3082,-2.52143 -0.9103,-2.33144 -0.7572,-4.86936 -0.8809,-7.31941 -0.065,-2.81809 0.066,-5.6902 -0.547,-8.45732 -0.066,-0.21908 -0.231,-0.45237 -0.4893,-0.42764 z"
       id="path11461"
       inkscape:connector-curvature="0" />
    <path
       style="fill:#7f2aff;fill-opacity:1;stroke:none;stroke-width:0.25;stroke-miterlimit:4;stroke-dasharray:none;stroke-opacity:1"
       d="m -1048.8796,692.42298 c -0.214,0.74769 -0.02,1.58045 -0.078,2.36063 0.055,4.16087 -0.02,8.32778 0.1886,12.48422 0.1497,0.83296 0.078,1.77875 0.5456,2.5132 0.4548,0.35313 0.9211,-0.2664 1.2836,-0.49348 3.7402,-3.20983 7.1698,-6.76132 10.6372,-10.25875 1.5797,-1.67982 3.29,-3.26454 4.6397,-5.1421 0.3016,-0.33808 0.1294,-0.87525 -0.3342,-0.93655 -2.0384,-0.47058 -4.1565,-0.42152 -6.2358,-0.52823 -3.4783,-0.10126 -6.9585,-0.0773 -10.4378,-0.083 -0.07,0.028 -0.139,0.056 -0.2086,0.0841 z"
       id="path11463"
       inkscape:connector-curvature="0" />
    <path
       style="fill:#7f2aff;fill-opacity:1;stroke:none;stroke-width:0.25;stroke-miterlimit:4;stroke-dasharray:none;stroke-opacity:1"
       d="m -1048.8596,799.1275 c -0.218,0.74644 -0.03,1.58007 -0.093,2.3598 0,5.73056 0,11.46112 0,17.19168 0.1887,0.55247 0.9341,0.19732 1.3736,0.2916 5.7122,-0.0743 11.428,-0.0169 17.1373,-0.22847 0.3418,-0.007 1.0492,-0.0304 0.8542,-0.55629 -1.4376,-1.79642 -3.1618,-3.34559 -4.7449,-5.01259 -4.6665,-4.7181 -9.3503,-9.41947 -14.1105,-14.04329 -0.155,-0.0973 -0.2595,-0.0926 -0.4171,-0.002 z"
       id="path11465"
       inkscape:connector-curvature="0" />
    <path
       style="fill:#7f2aff;fill-opacity:1;stroke:none;stroke-width:0.25;stroke-miterlimit:4;stroke-dasharray:none;stroke-opacity:1"
       d="m -895.99425,692.48425 c -5.19117,0.0107 -10.38234,0.0214 -15.57351,0.0321 -0.61963,0.43418 -0.63172,1.42076 -1.0017,2.07939 -0.88418,2.37116 -1.85777,4.71518 -2.65073,7.11704 0.49212,0.90881 1.44575,1.53699 2.11196,2.33543 3.31218,3.24577 6.39823,6.77845 10.15685,9.52671 0.45419,0.4424 1.08773,0.33295 1.51326,-0.0806 3.66689,-2.92837 6.91381,-6.34057 10.28625,-9.59456 3.66694,-3.62624 7.29724,-7.28925 10.94397,-10.93575 0.18585,-0.91492 -1.29217,-0.3597 -1.85457,-0.50836 -4.64393,0.01 -9.28785,0.0191 -13.93178,0.0287 z"
       id="path11467"
       inkscape:connector-curvature="0" />
    <path
       style="fill:#7f2aff;fill-opacity:1;stroke:none;stroke-width:0.25;stroke-miterlimit:4;stroke-dasharray:none;stroke-opacity:1"
       d="m -851.07501,744.38192 c -0.77838,0.16123 -1.34747,0.80177 -1.94854,1.27773 -2.38485,2.12957 -4.37763,4.64348 -6.49225,7.03001 -0.42993,0.53815 -0.94154,1.02395 -1.31041,1.60475 -0.0612,0.49205 0.41698,0.8465 0.63833,1.2403 3.08298,4.25305 6.79968,7.9865 10.40977,11.7841 2.24457,2.2775 4.46779,4.60081 6.99715,6.56802 0.51501,0.34576 1.04198,0.80157 1.68071,0.85589 0.55061,-0.0749 0.50476,-0.73805 0.44553,-1.14836 -0.37163,-2.45335 -1.13848,-4.82571 -1.82763,-7.20336 -1.85533,-6.01896 -3.86986,-11.99477 -6.21215,-17.84311 -0.57748,-1.32453 -1.06197,-2.71643 -1.88667,-3.91294 -0.11875,-0.15119 -0.29235,-0.27359 -0.49384,-0.25303 z"
       id="path11469"
       inkscape:connector-curvature="0" />
    <path
       style="fill:#7f2aff;fill-opacity:1;stroke:none;stroke-width:0.25;stroke-miterlimit:4;stroke-dasharray:none;stroke-opacity:1"
       d="m -919.21871,812.77115 c -0.92123,0.13565 -1.67157,0.77485 -2.41958,1.28304 -1.14592,0.89409 -2.29658,1.84058 -3.12973,3.04414 -0.25588,0.35349 -0.32534,0.90562 0.0875,1.17625 0.73083,0.57912 1.73161,0.64912 2.62995,0.6565 0.95677,-0.0414 2.01219,-0.33073 2.54968,-1.19277 0.7589,-1.25621 0.96604,-2.77621 0.95823,-4.22175 0.0128,-0.40161 -0.22813,-0.79301 -0.6761,-0.74541 z"
       id="path11471"
       inkscape:connector-curvature="0" />
    <path
       style="fill:#7f2aff;fill-opacity:1;stroke:none;stroke-width:0.25;stroke-miterlimit:4;stroke-dasharray:none;stroke-opacity:1"
       d="m -799.90772,747.43107 c -0.6897,0.18816 -0.56355,1.1515 -0.71605,1.70088 -0.49391,4.60821 -0.3645,9.25327 -0.39177,13.88003 0.51409,0.7789 1.16942,-0.65698 1.67291,-0.94841 2.38648,-2.43383 4.88947,-4.79165 7.20335,-7.27292 -0.10543,-0.67253 -0.90417,-1.13443 -1.31965,-1.69977 -1.88901,-1.86718 -3.66588,-3.89473 -5.8394,-5.44032 -0.18447,-0.10968 -0.38674,-0.23038 -0.60939,-0.21949 z"
       id="path11473"
       inkscape:connector-curvature="0" />
    <path
       style="fill:#7f2aff;fill-opacity:1;stroke:none;stroke-width:0.25;stroke-miterlimit:4;stroke-dasharray:none;stroke-opacity:1"
       d="m -768.12146,811.52397 c -0.97898,0.4362 -1.60984,1.42868 -2.42569,2.10004 -1.60518,1.61644 -3.27344,3.21308 -4.72455,4.95251 0.14653,0.76944 1.41553,0.20381 2.03339,0.3566 1.5879,-0.12105 3.25865,0.1662 4.79107,-0.35264 1.16309,-0.60167 0.85909,-2.14695 0.92311,-3.22405 -0.0735,-1.21188 0.14183,-2.4994 -0.21729,-3.66649 -0.0851,-0.11911 -0.23433,-0.1859 -0.38004,-0.16597 z"
       id="path11475"
       inkscape:connector-curvature="0" />
    <path
       style="fill:#7f2aff;fill-opacity:1;stroke:none;stroke-width:0.25;stroke-miterlimit:4;stroke-dasharray:none;stroke-opacity:1"
       d="m -771.17066,692.44878 c -0.86942,0.0885 -2.12529,-0.11658 -2.61219,0.79017 -0.14128,1.01076 0.84782,1.72904 1.36945,2.47835 1.03846,1.06144 1.96468,2.41079 3.40288,2.94506 0.82024,0.30449 1.38883,-0.53838 1.41559,-1.2622 0.14027,-1.35273 0.28121,-2.81528 -0.21603,-4.10991 -0.65846,-1.11128 -2.30412,-0.75847 -3.3597,-0.84147 z"
       id="path11477"
       inkscape:connector-curvature="0" />
    <path
       style="fill:#7f2aff;fill-opacity:1;stroke:none;stroke-width:0.25;stroke-miterlimit:4;stroke-dasharray:none;stroke-opacity:1"
       d="m -731.91611,692.44776 c -0.9571,-0.0691 -1.97657,0.54748 -2.03165,1.57269 -0.004,0.58332 -0.0914,1.40139 0.43207,1.77541 0.75703,0.11635 1.19612,-0.78615 1.70784,-1.19585 0.38179,-0.52733 1.26601,-1.14523 0.92704,-1.87949 -0.25391,-0.28318 -0.68806,-0.26787 -1.0353,-0.27276 z"
       id="path11479"
       inkscape:connector-curvature="0" />
    <path
       style="fill:#7f2aff;fill-opacity:1;stroke:none;stroke-width:0.25;stroke-miterlimit:4;stroke-dasharray:none;stroke-opacity:1"
       d="m -700.92051,744.12338 c -3.44158,3.34591 -7.01983,6.59313 -10.01891,10.35529 -0.0293,0.79744 0.68523,1.47608 1.07848,2.15613 2.24409,3.0354 4.61056,6.01201 7.33099,8.63667 0.34198,0.2833 1.06963,0.9397 1.36874,0.28534 0.80209,-3.49342 0.51865,-7.11696 0.65603,-10.67285 0.007,-3.5493 0.12847,-7.12539 0.0424,-10.65761 -0.0379,-0.1999 -0.32454,-0.21374 -0.45772,-0.10297 z"
       id="path11481"
       inkscape:connector-curvature="0" />
    <path
       style="fill:#7f2aff;fill-opacity:1;stroke:none;stroke-width:0.25;stroke-miterlimit:4;stroke-dasharray:none;stroke-opacity:1"
       d="m -732.90222,815.39677 c -0.73406,0.078 -1.02881,0.93355 -1.06441,1.57467 -0.096,0.75136 0.42227,1.43718 1.1093,1.69291 0.82404,0.3354 1.76927,0.30445 2.6223,0.11012 0.40189,-0.10503 0.58023,-0.57276 0.34625,-0.91668 -0.53622,-0.9457 -1.35379,-1.74421 -2.29602,-2.28222 -0.22227,-0.11176 -0.46674,-0.18507 -0.71742,-0.1788 z"
       id="path11483"
       inkscape:connector-curvature="0" />
    <path
       style="fill:#7f2aff;fill-opacity:1;stroke:none;stroke-width:0.25;stroke-miterlimit:4;stroke-dasharray:none;stroke-opacity:1"
       d="m -649.93947,748.42882 c -0.67597,0.10012 -0.62172,0.97378 -0.74475,1.48108 -0.41642,3.9168 -0.24761,7.86661 -0.29093,11.79842 0.10353,0.48465 -0.24116,1.24372 0.24746,1.53046 0.54757,-0.11409 0.86853,-0.7549 1.31839,-1.08799 1.87409,-1.88374 3.90189,-3.6579 5.44726,-5.83501 0.33632,-0.51343 0.74512,-1.1896 0.30885,-1.7735 -0.97996,-1.7583 -2.46053,-3.179 -3.9094,-4.5527 -0.71962,-0.57198 -1.39895,-1.34351 -2.32213,-1.56094 l -0.0265,-5.2e-4 -0.0283,7e-4 z"
       id="path11485"
       inkscape:connector-curvature="0" />
    <path
       style="fill:#7f2aff;fill-opacity:1;stroke:none;stroke-width:0.25;stroke-miterlimit:4;stroke-dasharray:none;stroke-opacity:1"
       d="m -588.86233,692.46735 c -0.17495,1.94405 -0.0477,3.95016 -0.052,5.91882 0.0766,0.76504 -0.0947,1.6548 0.33981,2.33133 0.59519,0.26117 1.00365,-0.57892 1.44938,-0.84541 2.39739,-2.29161 4.75344,-4.66718 6.97115,-7.11155 -0.13384,-0.77184 -1.41193,-0.22716 -2.02717,-0.39012 -2.18833,0.0341 -4.40526,-0.0681 -6.57583,0.0507 l -0.10533,0.0462 z"
       id="path11487"
       inkscape:connector-curvature="0" />
    <path
       style="fill:#7f2aff;fill-opacity:1;stroke:none;stroke-width:0.25;stroke-miterlimit:4;stroke-dasharray:none;stroke-opacity:1"
       d="m -555.59413,749.46969 c -1.3009,0.44281 -2.24439,1.56932 -3.24477,2.4657 -0.79956,0.91592 -1.95086,1.80566 -2.06667,3.09877 0.43556,1.74712 1.63715,3.19321 2.67578,4.62555 0.75829,0.82774 1.45549,2.02303 2.647,2.21098 0.68425,-0.3477 0.62444,-1.3256 0.82322,-1.97369 0.41188,-2.89894 0.22921,-5.85107 0.0617,-8.76312 -0.10843,-0.5672 -0.0768,-1.67445 -0.89621,-1.66419 z"
       id="path11489"
       inkscape:connector-curvature="0" />
    <path
       style="fill:#7f2aff;fill-opacity:1;stroke:none;stroke-width:0.25;stroke-miterlimit:4;stroke-dasharray:none;stroke-opacity:1"
       d="m -587.88695,810.45938 c -0.84166,0.25224 -0.81029,1.38243 -0.9453,2.09552 -0.10606,1.73961 -0.22816,3.53078 0.13293,5.24535 0.44209,1.18843 1.96149,0.97742 2.97023,1.04339 1.62451,-0.0502 3.36172,0.16202 4.89446,-0.47617 0.69352,-0.51711 -0.0593,-1.35329 -0.42269,-1.82698 -1.81651,-2.1473 -3.78103,-4.21924 -6.05748,-5.88283 -0.17335,-0.10146 -0.36359,-0.21326 -0.57215,-0.19828 z"
       id="path11491"
       inkscape:connector-curvature="0" />
    <path
       style="fill:#7f2aff;fill-opacity:1;stroke:none;stroke-width:0.25;stroke-miterlimit:4;stroke-dasharray:none;stroke-opacity:1"
       d="m -526.0553,723.45061 c -0.79726,0.31203 -0.61828,1.42609 -0.7369,2.11279 -0.32098,6.97906 0.496,14.25038 3.97356,20.43188 3.32053,6.09671 8.73783,10.73679 14.56721,14.35286 2.11004,1.28858 4.25365,2.55438 6.51821,3.54927 0.84141,-0.17022 1.38584,-1.01706 2.04927,-1.51591 2.24173,-2.15863 4.49596,-4.32988 6.54788,-6.66519 -0.0402,-0.65319 -0.83101,-0.97154 -1.17193,-1.48123 -8.28146,-8.34211 -16.56825,-16.68125 -25.00511,-24.86664 -2.13595,-1.96387 -4.15672,-4.0773 -6.45316,-5.85346 -0.0886,-0.0459 -0.1887,-0.0733 -0.28903,-0.0644 z"
       id="path11493"
       inkscape:connector-curvature="0" />
    <path
       style="fill:#7f2aff;fill-opacity:1;stroke:none;stroke-width:0.25;stroke-miterlimit:4;stroke-dasharray:none;stroke-opacity:1"
       d="m -473.0114,689.45908 c -1.57297,0.0706 -3.32081,-0.12545 -4.73139,0.69694 -0.53732,0.57839 0.31999,1.20339 0.6409,1.65455 5.61106,6.009 11.64634,11.60515 17.62817,17.23996 2.09974,1.87568 4.06586,3.92031 6.29692,5.63943 0.68423,0.40835 1.16526,-0.57881 1.67813,-0.86885 2.59051,-2.38621 5.36731,-4.616 7.61011,-7.34661 1.05137,-1.26937 1.3689,-2.93475 1.32037,-4.54332 0.0147,-2.76836 0.0802,-5.56431 -0.0268,-8.31506 -0.65453,-0.476 -1.64941,-0.48976 -2.4366,-0.78255 -7.05873,-1.88708 -14.35009,-2.75221 -21.62636,-3.23456 -2.11619,-0.0976 -4.23498,-0.14387 -6.35342,-0.13993 z"
       id="path11495"
       inkscape:connector-curvature="0" />
    <path
       style="fill:#7f2aff;fill-opacity:1;stroke:none;stroke-width:0.25;stroke-miterlimit:4;stroke-dasharray:none;stroke-opacity:1"
       d="m -452.97802,797.43368 c -1.06048,0.26789 -1.79452,1.2166 -2.65108,1.85009 -5.83073,5.20439 -11.40028,10.70204 -16.77501,16.3747 -0.84252,1.04974 -2.04002,1.93649 -2.47469,3.25008 -0.14425,0.839 0.91289,1.01369 1.52484,0.90682 3.53678,-0.4027 6.97615,-1.43989 10.3398,-2.57429 5.47166,-1.98527 10.86587,-4.43995 15.4879,-8.02541 1.1391,-1.0085 2.48277,-2.0236 2.97028,-3.52345 0.20118,-1.4776 -1.10762,-2.57502 -1.97324,-3.58752 -1.76487,-1.72297 -3.60681,-3.48618 -5.85396,-4.55881 -0.18972,-0.0708 -0.39107,-0.11995 -0.59484,-0.11221 z"
       id="path11497"
       inkscape:connector-curvature="0" />
    <path
       style="fill:#7f2aff;fill-opacity:1;stroke:none;stroke-width:0.25;stroke-miterlimit:4;stroke-dasharray:none;stroke-opacity:1"
       d="m -379.57318,723.49197 c -1.60338,0.78244 -2.78693,2.25949 -4.14195,3.40146 -8.5858,8.26466 -16.88705,16.83397 -24.82638,25.72208 -0.78669,1.07896 -2.00123,1.99443 -2.39537,3.29276 0.82812,1.93904 2.47354,3.42201 3.75655,5.0705 7.2733,8.34675 15.17223,16.12129 23.03684,23.90411 1.44696,1.31908 2.79918,2.8036 4.42941,3.88741 0.95527,-0.15657 0.73456,-1.50904 0.90506,-2.229 0.39709,-4.17608 0.11936,-8.40985 0.78614,-12.54778 0.31817,-1.99517 2.07402,-3.43034 4.03041,-3.65723 5.65396,-0.7586 11.40157,-0.38436 17.10519,-0.48721 1.15725,0.0275 1.68855,-1.37455 2.5651,-1.96754 3.46844,-3.54293 7.24373,-6.82938 10.3046,-10.74559 0.65228,-0.65177 0.53489,-1.62002 -0.10498,-2.22935 -3.5952,-4.20719 -7.97158,-7.65919 -12.02361,-11.40633 -0.68367,-0.96161 -1.714,-1.14104 -2.82068,-1.00916 -5.0766,-0.17558 -10.18693,0.0998 -15.2307,-0.54349 -2.00303,-0.21663 -3.67691,-1.86335 -3.85323,-3.88254 -0.74443,-4.67952 -0.13198,-9.53924 -1.00517,-14.22572 -0.0723,-0.21515 -0.28257,-0.38275 -0.51723,-0.34738 z"
       id="path11499"
       inkscape:connector-curvature="0" />
    <path
       style="fill:#7f2aff;fill-opacity:1;stroke:none;stroke-width:0.25;stroke-miterlimit:4;stroke-dasharray:none;stroke-opacity:1"
       d="m -303.72008,692.46519 c -6.36809,0.0657 -12.75582,-0.089 -19.10679,0.44538 -1.02891,-0.0694 -1.61295,0.69563 -0.55489,1.35925 5.62251,6.38883 11.71225,12.35989 17.96979,18.12282 1.08481,0.83152 2.04074,2.05675 3.37437,2.45222 1.74843,-0.66722 2.94636,-2.28883 4.32518,-3.49363 2.05564,-2.20095 4.5442,-4.23136 5.68563,-7.09545 0.93786,-3.74611 0.48318,-7.6709 0.61558,-11.49205 -0.66776,-0.69348 -2.04297,-0.10639 -2.97851,-0.2999 -3.11012,4.5e-4 -6.22024,9e-4 -9.33036,10e-4 z"
       id="path11501"
       inkscape:connector-curvature="0" />
    <path
       style="fill:#7f2aff;fill-opacity:1;stroke:none;stroke-width:0.25;stroke-miterlimit:4;stroke-dasharray:none;stroke-opacity:1"
       d="m -303.19343,797.46728 c -1.75668,0.88924 -3.0803,2.48858 -4.58731,3.74039 -5.35283,5.05585 -10.70984,10.1374 -15.5801,15.666 -0.37548,0.34356 -0.95651,1.25417 -0.0942,1.378 6.53863,0.76727 13.14791,0.53804 19.7199,0.66558 4.07222,-0.0299 8.18792,0.12614 12.23235,-0.0362 0.31367,-1.33007 -0.0221,-2.91323 0.0471,-4.33756 -0.10535,-2.65565 0.17205,-5.66183 -1.70572,-7.82399 -2.77455,-3.1912 -5.74145,-6.26785 -9.09703,-8.85219 -0.28427,-0.17634 -0.5852,-0.40303 -0.93506,-0.40004 z"
       id="path11503"
       inkscape:connector-curvature="0" />
    <path
       style="fill:#b380ff;fill-opacity:1;stroke:none;stroke-width:0.25;stroke-miterlimit:4;stroke-dasharray:none;stroke-opacity:1"
       d="m -292.50112,710.18247 c -1.62951,0.51345 -2.72382,2.02975 -3.98737,3.10459 -1.32771,1.45068 -3.03979,2.80674 -3.61342,4.7543 0.20045,1.75755 1.82271,2.91494 2.84981,4.22293 1.39642,1.38991 2.76574,2.97933 4.59299,3.7929 1.17446,-0.30227 1.03709,-1.88484 1.21303,-2.83831 0.26955,-4.00006 0.31864,-8.05563 -0.23508,-12.03195 -0.0983,-0.41852 -0.27498,-1.0403 -0.81996,-1.00446 z"
       id="path11505"
       inkscape:connector-curvature="0" />
    <path
       style="fill:#e5d5ff;fill-opacity:1;stroke:none;stroke-width:0.25;stroke-miterlimit:4;stroke-dasharray:none;stroke-opacity:1"
       d="m -1130.0989,691.39501 c -5.1565,0.0244 -10.3176,0.0219 -15.467,0.32601 -0.8405,0.0806 -1.7063,0.0734 -2.52,0.31852 -0.3865,0.13616 -0.3083,0.62381 -0.1181,0.89053 0.7769,1.25388 1.7906,2.33971 2.7456,3.4574 2.2722,2.58016 4.6559,5.05916 7.0962,7.48024 3.4707,3.47173 6.9297,6.96186 10.6021,10.22245 0.3755,0.30123 0.726,0.66707 1.178,0.84968 0.3559,-0.005 0.6087,-0.3285 0.8945,-0.50359 1.6009,-1.32838 3.055,-2.82224 4.5421,-4.27413 4.197,-4.19219 8.3122,-8.47055 12.2387,-12.91832 0.7559,-0.89886 1.5732,-1.76265 2.1838,-2.77079 0.2533,-0.51589 -0.053,-1.10434 -0.4792,-1.41968 -1.0022,-0.7944 -2.3128,-1.04224 -3.5528,-1.18745 -3.576,-0.31282 -7.1689,-0.36186 -10.7563,-0.42302 -2.8623,-0.0384 -5.725,-0.0508 -8.5876,-0.0479 z"
       id="path11507"
       inkscape:connector-curvature="0" />
    <path
       style="fill:#e5d5ff;fill-opacity:1;stroke:none;stroke-width:0.25;stroke-miterlimit:4;stroke-dasharray:none;stroke-opacity:1"
       d="m -1174.344,747.461 c -1.2267,0.35363 -1.0564,2.00242 -1.2985,2.99847 -0.3328,3.6279 -0.5785,7.34226 0.062,10.94789 0.2857,1.18284 2.01,1.98569 2.9318,0.97203 1.9966,-1.74747 3.6169,-3.95104 4.7991,-6.32011 0.9697,-2.10422 -0.8656,-4.04125 -2.1993,-5.46073 -1.2741,-1.17106 -2.506,-2.66756 -4.2275,-3.13964 l -0.033,0 -0.034,0.002 z"
       id="path11509"
       inkscape:connector-curvature="0" />
    <path
       style="fill:#e5d5ff;fill-opacity:1;stroke:none;stroke-width:0.25;stroke-miterlimit:4;stroke-dasharray:none;stroke-opacity:1"
       d="m -1141.8768,809.25927 c -1.911,0.47832 -3.2394,2.14859 -4.6596,3.4096 -1.6666,1.77557 -3.5652,3.46 -4.6746,5.65848 -0.3706,1.02401 1.0697,1.27762 1.7885,1.24198 2.4178,-0.0181 4.93,0.25867 7.2817,-0.40667 1.515,-0.681 1.2539,-2.66634 1.4804,-4.0247 0.013,-1.77959 0.3808,-3.72378 -0.3577,-5.40122 -0.1745,-0.29967 -0.5058,-0.50666 -0.8587,-0.47747 z"
       id="path11511"
       inkscape:connector-curvature="0" />
    <path
       style="fill:#e5d5ff;fill-opacity:1;stroke:none;stroke-width:0.25;stroke-miterlimit:4;stroke-dasharray:none;stroke-opacity:1"
       d="m -1073.3026,740.67354 c -1.6987,0.67655 -2.939,2.18607 -4.3385,3.32507 -3.0959,2.97466 -6.3658,5.84444 -8.9452,9.29491 -0.8433,1.14258 0.4508,2.33572 1.0701,3.24393 1.1464,1.27686 2.3222,2.8068 4.03,3.30218 1.4407,-0.37284 2.1254,-1.96484 2.9557,-3.06484 2.5672,-4.28947 4.7428,-8.91075 5.8006,-13.81714 0.053,-0.66263 0.4409,-2.17015 -0.5727,-2.28411 z"
       id="path11513"
       inkscape:connector-curvature="0" />
    <path
       style="fill:#e5d5ff;fill-opacity:1;stroke:none;stroke-width:0.25;stroke-miterlimit:4;stroke-dasharray:none;stroke-opacity:1"
       d="m -1048.5241,723.43372 c -0.8871,0.41501 -0.68,1.723 -0.8786,2.52875 -0.6395,9.06983 -0.4404,18.1749 -0.5156,27.26129 0.055,10.40761 -0.045,20.82582 0.4714,31.22316 0.015,0.84267 0.2292,2.41016 1.415,2.18191 1.923,-1.00981 3.2549,-2.86199 4.8518,-4.29795 8.3489,-8.445 16.5702,-17.02965 24.3836,-25.97456 0.534,-0.70725 1.6857,-1.62027 0.9449,-2.58254 -3.2957,-4.29845 -7.2536,-8.04254 -10.9857,-11.95627 -5.9822,-5.98573 -11.8974,-12.06383 -18.2986,-17.60672 -0.4207,-0.296 -0.8521,-0.7342 -1.3882,-0.77707 z"
       id="path11515"
       inkscape:connector-curvature="0" />
    <path
       style="fill:#e5d5ff;fill-opacity:1;stroke:none;stroke-width:0.25;stroke-miterlimit:4;stroke-dasharray:none;stroke-opacity:1"
       d="m -976.39236,795.49741 c -1.88877,0.61707 -3.30521,2.18351 -4.86541,3.354 -6.59062,5.70807 -13.03236,11.63138 -18.86123,18.12381 -0.4808,0.54823 -1.2551,1.74265 -0.2305,2.17384 2.34449,0.74435 4.86594,0.27466 7.28408,0.42637 7.81717,-0.0308 15.64299,0.0492 23.45424,-0.20874 0.93197,-0.36478 0.52504,-1.69172 0.70978,-2.45478 0.10393,-4.2667 0.47034,-8.55237 0.13215,-12.81412 -0.45217,-2.99331 -2.90766,-5.13718 -5.00558,-7.09578 -0.78269,-0.57864 -1.59241,-1.43703 -2.61753,-1.5046 z"
       id="path11517"
       inkscape:connector-curvature="0" />
    <path
       style="fill:#e5d5ff;fill-opacity:1;stroke:none;stroke-width:0.25;stroke-miterlimit:4;stroke-dasharray:none;stroke-opacity:1"
       d="m -902.00443,720.46774 c -1.37835,0.45479 -2.3292,1.74293 -3.47944,2.58637 -7.86589,7.02305 -15.5942,14.21833 -22.90981,21.81616 -2.16833,2.27161 -4.18755,4.80222 -5.05487,7.87755 -0.57461,1.74766 -1.33145,3.50585 -1.70773,5.2724 3.44933,3.67418 7.18704,7.18797 10.74781,10.79955 6.77665,6.63572 13.36841,13.48769 20.58798,19.64986 0.73623,0.44548 1.35602,1.36231 2.23389,1.44706 3.46127,-1.73424 6.03464,-4.77599 8.76533,-7.4414 2.32422,-2.52357 4.84032,-4.94187 6.69086,-7.84774 0.51419,-0.59269 0.0996,-1.3763 -0.6243,-1.47775 -5.13944,-1.28903 -10.52544,-0.25138 -15.68987,-1.28104 -1.45789,-0.22489 -2.97729,-1.29418 -2.96387,-2.92271 -0.0437,-3.07598 1.08288,-6.11128 1.67031,-9.14926 2.62456,-11.12691 5.58942,-22.18888 8.33702,-33.27401 -1.35644,-1.96053 -3.22575,-3.54797 -4.96303,-5.17404 -0.4789,-0.37205 -1.00175,-0.85973 -1.64028,-0.881 z"
       id="path11519"
       inkscape:connector-curvature="0" />
    <path
       style="fill:#e5d5ff;fill-opacity:1;stroke:none;stroke-width:0.25;stroke-miterlimit:4;stroke-dasharray:none;stroke-opacity:1"
       d="m -880.87755,741.12867 c -0.74653,0.41391 -0.20559,1.53826 -0.2271,2.2241 1.03277,5.9444 2.38352,11.84535 4.0929,17.6322 0.40997,1.10603 0.76403,2.87631 2.25307,2.86831 1.91628,-0.94833 3.26732,-2.75199 4.76417,-4.23408 1.21282,-1.47158 2.74167,-2.83076 3.42849,-4.64322 -0.3625,-1.52929 -1.77346,-2.58259 -2.73442,-3.75807 -3.42915,-3.47042 -6.91506,-6.9437 -10.86561,-9.82278 -0.21705,-0.1229 -0.44978,-0.28651 -0.7115,-0.26646 z"
       id="path11521"
       inkscape:connector-curvature="0" />
    <path
       style="fill:#e5d5ff;fill-opacity:1;stroke:none;stroke-width:0.25;stroke-miterlimit:4;stroke-dasharray:none;stroke-opacity:1"
       d="m -831.80005,800.05619 c -1.97918,0.94971 -3.57047,2.58567 -5.27544,3.95295 -4.20226,3.84396 -8.30786,7.82148 -12.07794,12.09253 -0.4434,0.78273 -1.62468,1.59012 -1.27176,2.59431 1.04801,0.77036 2.52234,0.66876 3.76256,0.91937 6.06629,0.51574 12.20211,0.4346 18.24887,-0.28046 0.88267,-0.19282 2.08007,-0.21902 2.61225,-0.98036 -0.52739,-4.4949 -2.02207,-8.8106 -3.32625,-13.125 -0.66671,-1.70478 -1.04173,-3.66056 -2.2705,-5.06173 -0.11733,-0.0783 -0.25992,-0.12465 -0.40179,-0.11161 z"
       id="path11523"
       inkscape:connector-curvature="0" />
    <path
       style="fill:#e5d5ff;fill-opacity:1;stroke:none;stroke-width:0.25;stroke-miterlimit:4;stroke-dasharray:none;stroke-opacity:1"
       d="m -768.11794,735.82384 c -2.05073,0.69067 -3.52359,2.46183 -5.14524,3.81778 -4.26422,4.1141 -8.49792,8.34352 -11.92221,13.19886 -0.78821,0.92983 -0.96606,2.26611 -0.24247,3.29063 2.67345,4.47102 6.25852,8.31741 9.74384,12.16038 2.26739,2.2686 4.39767,4.82189 7.22393,6.41349 1.13649,0.37686 1.17943,-1.25456 1.31767,-1.96673 0.83228,-6.17125 0.50291,-12.42589 0.59982,-18.63525 -0.10811,-5.52992 0.2225,-11.11371 -0.63582,-16.59788 -0.17015,-0.5472 -0.11961,-1.68067 -0.93952,-1.68128 z"
       id="path11525"
       inkscape:connector-curvature="0" />
    <path
       style="fill:#e5d5ff;fill-opacity:1;stroke:none;stroke-width:0.25;stroke-miterlimit:4;stroke-dasharray:none;stroke-opacity:1"
       d="m -733.87268,739.16229 c -0.9118,0.28638 -0.56296,1.60205 -0.74847,2.31864 -0.4408,8.05963 -0.20776,16.14013 -0.10936,24.20668 0.181,1.84393 -0.22347,3.91972 0.71657,5.59556 0.94597,1.02198 2.29862,-0.0958 3.07966,-0.77636 4.50895,-4.04808 8.69043,-8.47821 12.48814,-13.19964 0.65358,-0.98174 1.96499,-2.24991 1.0512,-3.47203 -3.05255,-3.78733 -6.84774,-6.89746 -10.45359,-10.13778 -1.91763,-1.54362 -3.68827,-3.3653 -5.87139,-4.52461 -0.0501,-0.0112 -0.10165,-0.0143 -0.15276,-0.0105 z"
       id="path11527"
       inkscape:connector-curvature="0" />
    <path
       style="fill:#e5d5ff;fill-opacity:1;stroke:none;stroke-width:0.25;stroke-miterlimit:4;stroke-dasharray:none;stroke-opacity:1"
       d="m -687.01582,691.48965 c -4.21642,0.10226 -8.46812,-0.0419 -12.65625,0.49386 -0.78742,0.12109 -0.65415,1.01611 -0.17508,1.4216 4.22322,5.25905 9.0801,9.97354 13.83479,14.74571 2.75885,2.58828 5.36019,5.40428 8.46362,7.58618 0.95579,0.29134 1.68313,-0.84188 2.41957,-1.281 5.74173,-5.08094 11.07391,-10.63132 16.03692,-16.4728 0.73429,-1.02433 1.77337,-1.97504 2.09666,-3.20986 -0.63364,-0.944 -2.01141,-1.04058 -3.0113,-1.41392 -6.40137,-1.35253 -12.97821,-1.65371 -19.5023,-1.83489 -2.50196,-0.0426 -5.00439,-0.047 -7.50663,-0.0349 z"
       id="path11529"
       inkscape:connector-curvature="0" />
    <path
       style="fill:#e5d5ff;fill-opacity:1;stroke:none;stroke-width:0.25;stroke-miterlimit:4;stroke-dasharray:none;stroke-opacity:1"
       d="m -677.4347,795.41996 c -3.4888,2.229 -6.32013,5.32098 -9.35407,8.10582 -4.51097,4.4605 -9.12344,8.8595 -13.1386,13.78174 -0.5121,0.46 -0.78901,1.44083 0.0711,1.69852 2.88349,0.88092 5.97302,0.72545 8.957,0.88337 8.10269,0.0647 16.24255,-0.12361 24.27821,-1.23458 3.10436,-0.63424 6.2791,-1.24375 9.18073,-2.54744 0.86959,-0.62184 -0.29318,-1.52721 -0.6632,-2.10031 -4.98902,-5.71953 -10.43589,-11.03324 -16.02283,-16.16506 -1.03395,-0.85392 -2.0215,-1.87743 -3.2191,-2.45903 l -0.0893,0.037 z"
       id="path11531"
       inkscape:connector-curvature="0" />
    <path
       style="fill:#e5d5ff;fill-opacity:1;stroke:none;stroke-width:0.25;stroke-miterlimit:4;stroke-dasharray:none;stroke-opacity:1"
       d="m -617.35483,734.90239 c -1.88235,0.46184 -3.12849,2.17896 -4.55002,3.37861 -5.18242,5.15653 -10.19932,10.49093 -14.98402,16.01801 -0.45603,0.8 0.59685,1.5616 0.89699,2.26311 3.25909,4.71654 7.35123,8.78175 11.31922,12.89448 1.80324,1.67495 3.43893,3.63393 5.57955,4.88496 1.00584,0.44614 2.36994,0.19248 2.75391,-0.95459 1.25538,-3.07361 1.63474,-6.42984 2.14599,-9.68924 0.52766,-6.20231 0.48991,-12.45315 0.14951,-18.66578 -0.31932,-3.10314 -0.37415,-6.41984 -1.8829,-9.22869 -0.30903,-0.48661 -0.81287,-0.9442 -1.42823,-0.90087 z"
       id="path11533"
       inkscape:connector-curvature="0" />
    <path
       style="fill:#e5d5ff;fill-opacity:1;stroke:none;stroke-width:0.25;stroke-miterlimit:4;stroke-dasharray:none;stroke-opacity:1"
       d="m -588.67232,735.10049 c -0.94077,0.32091 -0.59311,1.66132 -0.78567,2.42243 -0.54132,10.76842 -0.47502,21.56103 -0.29844,32.33889 0.14774,2.01112 -0.0687,4.11254 0.45702,6.06597 0.47436,0.82812 1.68591,1.34364 2.40165,0.48688 4.54319,-3.96212 8.62305,-8.42806 12.74756,-12.81688 2.25865,-2.58143 4.75378,-5.01854 6.58907,-7.92949 0.21408,-1.03575 -0.95228,-1.7827 -1.44101,-2.57466 -5.10117,-5.71105 -10.64446,-11.03502 -16.4832,-15.98733 -0.99436,-0.6947 -1.95618,-1.79007 -3.18698,-2.00581 z"
       id="path11535"
       inkscape:connector-curvature="0" />
    <path
       style="fill:#e5d5ff;fill-opacity:1;stroke:none;stroke-width:0.25;stroke-miterlimit:4;stroke-dasharray:none;stroke-opacity:1"
       d="m -509.01446,696.52906 c -2.36414,1.03803 -4.5673,2.48749 -6.6333,4.03669 -2.63874,2.32672 -5.20625,4.87889 -6.93046,7.97363 -0.3164,0.67823 -0.73335,2.20683 0.41469,2.29213 1.45913,-0.54988 2.50663,-1.88697 3.71133,-2.84623 3.55641,-3.35008 7.18357,-6.76709 9.78965,-10.93376 0.12746,-0.24575 -0.0532,-0.57535 -0.35191,-0.52246 z"
       id="path11537"
       inkscape:connector-curvature="0" />
    <path
       style="fill:#e5d5ff;fill-opacity:1;stroke:none;stroke-width:0.25;stroke-miterlimit:4;stroke-dasharray:none;stroke-opacity:1"
       d="m -525.71856,798.49683 c -0.94766,0.44332 -0.74141,1.8083 -0.94762,2.66985 -0.30913,4.08838 -0.61411,8.27299 0.18276,12.32213 0.77018,2.39694 3.38792,3.24906 5.5673,3.86679 4.74648,1.37002 9.53355,2.75395 14.44595,3.36256 1.06794,-0.0601 2.44483,0.33814 3.31822,-0.4248 0.41522,-1.06783 -0.85546,-1.87918 -1.40886,-2.6418 -6.08554,-6.24102 -12.35579,-12.33011 -19.07593,-17.88938 -0.65935,-0.43202 -1.2724,-1.14714 -2.08182,-1.26535 z"
       id="path11539"
       inkscape:connector-curvature="0" />
    <path
       style="fill:#e5d5ff;fill-opacity:1;stroke:none;stroke-width:0.25;stroke-miterlimit:4;stroke-dasharray:none;stroke-opacity:1"
       d="m -472.81852,741.48337 c -1.65904,0.33171 -2.81913,1.78341 -4.1225,2.75874 -3.01272,2.83877 -6.05709,5.68623 -8.68861,8.88747 -0.99007,1.11588 -1.32542,2.80802 -0.41992,4.08133 2.2929,3.48072 5.3389,6.38875 8.0942,9.49662 7.22209,7.65122 14.5327,15.24896 22.41629,22.22594 0.9485,0.66291 1.83396,1.79151 3.04315,1.87537 2.24748,-1.07164 3.97757,-2.98495 5.84613,-4.59124 3.66063,-3.51614 7.32034,-7.0947 10.35679,-11.17571 0.64523,-0.81419 1.02658,-1.89445 0.50258,-2.87737 -1.48506,-3.90602 -3.26715,-7.75139 -5.64479,-11.19888 -4.43131,-6.08436 -11.29646,-9.63038 -17.6947,-13.25494 -4.25905,-2.22238 -8.47773,-4.64013 -13.05699,-6.14502 -0.20679,-0.0479 -0.41815,-0.0916 -0.63163,-0.0823 z"
       id="path11541"
       inkscape:connector-curvature="0" />
    <path
       style="fill:#e5d5ff;fill-opacity:1;stroke:none;stroke-width:0.25;stroke-miterlimit:4;stroke-dasharray:none;stroke-opacity:1"
       d="m -394.17289,691.59742 c -2.11354,0.11667 -4.37214,-0.18855 -6.3752,0.61105 -0.92078,0.63848 0.18955,1.66573 0.59395,2.26318 4.96313,5.93808 10.5091,11.37013 16.16119,16.64705 1.56842,1.27194 2.9515,2.94374 4.85723,3.70242 1.03844,-0.007 0.96402,-1.45432 1.09236,-2.17773 0.36076,-6.40826 0.0276,-12.83419 -0.1154,-19.24543 0.006,-0.64784 0.0813,-1.74004 -0.9108,-1.49436 -5.09999,-0.14208 -10.20097,-0.2972 -15.30333,-0.30618 z"
       id="path11543"
       inkscape:connector-curvature="0" />
    <path
       style="fill:#e5d5ff;fill-opacity:1;stroke:none;stroke-width:0.25;stroke-miterlimit:4;stroke-dasharray:none;stroke-opacity:1"
       d="m -378.95979,797.37832 c -1.81753,0.76999 -3.15646,2.37435 -4.66084,3.61374 -5.42341,5.12209 -10.79304,10.34334 -15.57549,16.07799 -0.33459,0.62338 -1.40695,1.39352 -0.90345,2.14944 2.84733,0.69671 5.84878,0.35488 8.7601,0.44231 4.38709,-0.0698 8.823,-0.0421 13.17393,-0.39428 0.41073,-2.26728 0.27368,-4.74964 0.3645,-7.10574 -0.0128,-4.45872 0.21378,-8.93381 -0.0964,-13.38314 -0.12034,-0.54604 -0.41249,-1.36123 -1.06236,-1.40032 z"
       id="path11545"
       inkscape:connector-curvature="0" />
    <path
       style="fill:#e5d5ff;fill-opacity:1;stroke:none;stroke-width:0.25;stroke-miterlimit:4;stroke-dasharray:none;stroke-opacity:1"
       d="m -303.47403,722.01036 c -1.79201,0.24138 -2.93693,1.91936 -4.28055,2.96277 -8.76359,8.34691 -17.11894,17.12124 -25.21555,26.11435 -1.29868,1.61673 -2.92578,3.06359 -3.84549,4.93691 0.0978,1.45267 1.43583,2.46589 2.21841,3.59408 7.17815,8.21065 14.93992,15.89033 22.71463,23.53098 2.79119,2.58088 5.3966,5.42112 8.52225,7.60394 0.9495,0.2533 1.67449,-0.82823 2.39363,-1.28697 3.65921,-3.24309 6.92613,-6.893 10.32331,-10.40179 0.1943,-4.08453 0.0272,-8.23877 0.083,-12.35002 0,-11.14677 0,-22.29353 0,-33.44029 -2.27717,-2.53672 -4.84905,-4.88395 -7.27486,-7.31321 -1.63771,-1.4089 -3.09931,-3.31597 -5.25409,-3.92389 -0.127,-0.0212 -0.256,-0.03 -0.3847,-0.0269 z"
       id="path11547"
       inkscape:connector-curvature="0" />
  </g>
</svg>
