<?xml version="1.0" encoding="UTF-8" standalone="no"?>
<!-- Created with Inkscape (http://www.inkscape.org/) -->

<svg
   xmlns:dc="http://purl.org/dc/elements/1.1/"
   xmlns:cc="http://creativecommons.org/ns#"
   xmlns:rdf="http://www.w3.org/1999/02/22-rdf-syntax-ns#"
   xmlns:svg="http://www.w3.org/2000/svg"
   xmlns="http://www.w3.org/2000/svg"
   xmlns:sodipodi="http://sodipodi.sourceforge.net/DTD/sodipodi-0.dtd"
   xmlns:inkscape="http://www.inkscape.org/namespaces/inkscape"
   id="svg4136"
   version="1.1"
   inkscape:version="0.91 r13725"
   width="40.030632"
   height="45.177429"
   viewBox="0 0 40.030632 45.177429"
   sodipodi:docname="TikTok_icon.svg">
  <metadata
     id="metadata4142">
    <rdf:RDF>
      <cc:Work
         rdf:about="">
        <dc:format>image/svg+xml</dc:format>
        <dc:type
           rdf:resource="http://purl.org/dc/dcmitype/StillImage" />
        <dc:title></dc:title>
      </cc:Work>
    </rdf:RDF>
  </metadata>
  <defs
     id="defs4140" />
  <sodipodi:namedview
     pagecolor="#ffffff"
     bordercolor="#666666"
     borderopacity="1"
     objecttolerance="10"
     gridtolerance="10"
     guidetolerance="10"
     inkscape:pageopacity="0"
     inkscape:pageshadow="2"
     inkscape:window-width="1920"
     inkscape:window-height="1017"
     id="namedview4138"
     showgrid="false"
     fit-margin-top="0"
     fit-margin-left="0"
     fit-margin-right="0"
     fit-margin-bottom="0"
     inkscape:zoom="15.619601"
     inkscape:cx="15.825174"
     inkscape:cy="19.809717"
     inkscape:window-x="-8"
     inkscape:window-y="-8"
     inkscape:window-maximized="1"
     inkscape:current-layer="g4146" />
  <g
     id="g4146"
     transform="scale(0.30499529,0.30499529)">
    <path
       style="fill:#ffffff"
       d="M 0,74.0625 0,0 l 65.625,0 65.625,0 0,74.0625 0,74.0625 -65.625,0 -65.625,0 0,-74.0625 z"
       id="path4154"
       inkscape:connector-curvature="0" />
    <path
       style="fill:#11e5de"
       d="M 41.074595,146.7471 C 31.450788,144.0965 18.816298,135.61706 10.86794,126.47438 -5.7665286,107.34039 -2.6388503,77.072778 17.557828,61.73402 25.94228,55.366285 32.369481,53.141626 42.65625,53.046651 l 8.4375,-0.0779 0.291324,2.522974 c 0.239684,2.075752 0.821317,2.574295 3.28125,2.8125 L 57.65625,58.59375 57.918635,70.546875 58.181019,82.5 l -4.372366,0 c -9.225773,0 -16.390309,4.140963 -19.974473,11.544853 -3.759411,7.765917 -1.851453,19.187107 3.66582,21.943917 3.468258,1.73297 12.049754,1.43301 16.47257,-0.57578 4.577024,-2.07884 9.114729,-7.31668 10.582339,-12.21513 C 65.298457,100.71611 65.625,84.425554 65.625,49.813106 L 65.625,0 77.750229,0 89.875458,0 90.172104,2.578125 c 0.222708,1.9355341 0.880819,2.6589322 2.640396,2.9023296 3.212644,0.4443966 4.6875,1.8430521 4.6875,4.4453238 0,3.2843986 2.67603,10.5332066 5.41832,14.6770796 2.82192,4.264215 9.4354,7.968464 15.77909,8.837964 3.64605,0.499746 4.45299,0.998689 5.23274,3.235476 0.69246,1.986389 1.71812,2.79398 4.12088,3.244742 l 3.19897,0.600131 0,12.115455 0,12.115455 -4.92187,-0.569956 c -6.83114,-0.79105 -17.25678,-3.898857 -22.14933,-6.60255 -7.048372,-3.895025 -6.677975,-5.132773 -6.685878,22.3423 -0.0037,13.535156 -0.450656,27.343375 -0.992794,30.684935 -2.755521,16.98411 -16.281367,31.66089 -33.251655,36.08109 -6.565153,1.71001 -16.087823,1.73543 -22.173878,0.0591 z"
       id="path4152"
       inkscape:connector-curvature="0" />
    <path
       style="fill:#e9084d"
       d="M 40.957262,146.71717 C 25.721812,142.52905 13.799711,130.97137 9.2267934,115.9566 6.6922197,107.63454 7.1322198,94.984903 10.235411,86.959665 16.567368,70.584432 32.95042,58.993145 50.15625,58.714995 l 7.5,-0.121245 0.262385,11.953125 0.262384,11.953125 -4.372366,0 c -6.754373,0 -11.690497,1.907134 -15.953605,6.163878 -4.737222,4.73015 -6.314197,9.2071 -5.790993,16.440322 1.464342,20.24431 28.783125,25.26025 38.510028,7.07074 2.067144,-3.86559 2.084085,-4.25871 2.347967,-54.482784 0.202084,-38.462142 0.539183,-50.7631865 1.40625,-51.3153464 1.861331,-1.1853207 21.073106,-0.7527681 22.054912,0.4965657 0.473447,0.602456 1.138013,2.9113863 1.476816,5.1309557 2.035959,13.337996 13.521492,24.643231 27.912692,27.474527 l 5.47728,1.077589 0,12.097817 0,12.097817 -4.92187,-0.569956 c -6.83114,-0.79105 -17.25678,-3.898857 -22.14933,-6.60255 -7.048372,-3.895025 -6.677975,-5.132773 -6.685878,22.3423 -0.0037,13.535156 -0.450656,27.343375 -0.992794,30.684935 -2.755521,16.98411 -16.281367,31.66089 -33.251655,36.08109 -6.605823,1.7206 -16.093206,1.73305 -22.291211,0.0292 z"
       id="path4150"
       inkscape:connector-curvature="0" />
    <path
       style="fill:#070607"
       d="M 37.587225,141.47805 C 17.938268,138.067 6.6161436,122.67665 7.7208494,100.88017 8.2449896,90.53859 10.608596,83.848688 16.513642,75.993242 23.359083,66.886792 36.664047,59.318332 46.714471,58.813654 l 4.379279,-0.219904 0,8.90625 0,8.90625 -6.617814,0.515997 c -14.693792,1.14569 -22.870972,12.574744 -19.082739,26.671503 1.13881,4.23773 11.015764,14.39179 16.942647,17.41797 10.572886,5.39838 22.646366,1.62014 28.238239,-8.83678 2.067144,-3.86559 2.084085,-4.25871 2.347967,-54.482784 C 73.12414,19.228935 73.461209,6.9293632 74.3283,6.3783873 75.779858,5.4560237 88.282843,5.4265037 89.53625,6.342481 c 0.518374,0.3788228 1.505723,2.376269 2.194109,4.438769 3.139185,9.405442 15.743221,21.918086 26.613101,26.42011 l 4.93779,2.045111 0.26717,9.439264 0.26718,9.439265 -3.36336,0 c -5.7026,0 -15.72266,-2.725732 -22.435124,-6.102967 -3.521607,-1.771825 -6.76612,-2.997034 -7.210021,-2.722688 C 90.363192,49.573691 90,61.708061 90,76.264611 90,105.12803 89.435417,109.5209 84.578523,118.44766 75.509247,135.11661 56.005381,144.67543 37.587225,141.47805 Z"
       id="path4148"
       inkscape:connector-curvature="0" />
  </g>
</svg>
