<?xml version="1.0" encoding="UTF-8" standalone="no"?>
<!-- Created with Inkscape (http://www.inkscape.org/) -->

<svg
   xmlns:dc="http://purl.org/dc/elements/1.1/"
   xmlns:cc="http://creativecommons.org/ns#"
   xmlns:rdf="http://www.w3.org/1999/02/22-rdf-syntax-ns#"
   xmlns:svg="http://www.w3.org/2000/svg"
   xmlns="http://www.w3.org/2000/svg"
   xmlns:sodipodi="http://sodipodi.sourceforge.net/DTD/sodipodi-0.dtd"
   xmlns:inkscape="http://www.inkscape.org/namespaces/inkscape"
   width="149.01334mm"
   height="130.38667mm"
   viewBox="0 0 528.00001 462.00002"
   id="svg2"
   version="1.1"
   inkscape:version="0.91 r13725"
   sodipodi:docname="link.svg">
  <defs
     id="defs4" />
  <sodipodi:namedview
     id="base"
     pagecolor="#ffffff"
     bordercolor="#666666"
     borderopacity="1.0"
     inkscape:pageopacity="0.0"
     inkscape:pageshadow="2"
     inkscape:zoom="1.4"
     inkscape:cx="89.772918"
     inkscape:cy="219.81815"
     inkscape:document-units="px"
     inkscape:current-layer="g4147"
     showgrid="false"
     fit-margin-top="0"
     fit-margin-left="0"
     fit-margin-right="0"
     fit-margin-bottom="0"
     inkscape:window-width="1920"
     inkscape:window-height="1017"
     inkscape:window-x="1912"
     inkscape:window-y="-8"
     inkscape:window-maximized="1" />
  <metadata
     id="metadata7">
    <rdf:RDF>
      <cc:Work
         rdf:about="">
        <dc:format>image/svg+xml</dc:format>
        <dc:type
           rdf:resource="http://purl.org/dc/dcmitype/StillImage" />
        <dc:title></dc:title>
      </cc:Work>
    </rdf:RDF>
  </metadata>
  <g
     inkscape:label="Layer 1"
     inkscape:groupmode="layer"
     id="layer1"
     transform="translate(-116.44692,-251.17658)">
    <g
       id="g4147"
       transform="translate(20.446917,49.814368)">
      <path
         style="fill:#ffffff"
         d="m 96.000008,432.36221 0,-231 264.000002,0 264,0 0,231 0,231 -264,0 -264.000002,0 0,-231 z"
         id="path4151"
         inkscape:connector-curvature="0" />
      <path
         style="fill:#ff2a7f"
         d="m 248.50001,624.64795 c -28.41552,-3.92696 -56.40503,-21.76488 -72.75787,-46.36911 -6.65166,-10.00799 -9.90347,-16.99235 -13.18733,-28.32428 -9.11444,-31.45202 -3.34331,-63.94649 16.2671,-91.59235 3.89085,-5.48514 54.72371,-56.93159 57.09578,-57.78496 0.43565,-0.15673 1.05032,5.46827 1.36593,12.5 0.31561,7.03173 1.33719,16.76163 2.27018,21.62201 l 1.69635,8.83705 -16.51131,16.66295 c -20.39478,20.58209 -25.73769,28.69748 -29.78101,45.2346 -1.85483,7.58623 -1.65911,23.99604 0.38081,31.92835 5.91722,23.00929 23.87815,42.24682 46.30651,49.59779 7.97098,2.61251 10.1525,2.89861 21.85486,2.86613 16.94033,-0.047 26.04955,-2.75416 39.5,-11.73892 5.57829,-3.72624 73.4982,-71.08214 79.65802,-78.99654 16.32128,-20.97027 18.86683,-49.78867 6.59264,-74.63583 -5.50657,-11.14719 -18.74055,-24.30601 -30.11646,-29.94543 -4.60118,-2.28096 -8.98868,-4.1472 -9.75,-4.1472 -4.44594,0 1.14463,-7.63317 14.59235,-19.92388 l 8.93193,-8.16346 4.29576,2.18052 c 16.93885,8.5981 33.94931,25.93749 43.19904,44.03436 15.73034,30.77602 15.59025,66.01399 -0.38453,96.71954 -2.27381,4.37054 -5.92465,10.34619 -8.11299,13.27922 -5.00262,6.70503 -74.24185,76.63239 -83.17087,83.99746 -12.30433,10.14919 -30.79451,18.46252 -47.61588,21.40847 -7.6873,1.34628 -25.3734,1.75484 -32.61901,0.75351 z m 76.25824,-126.45432 c -8.56033,-4.64453 -21.39048,-15.37162 -28.38263,-23.73027 -23.44901,-28.03173 -30.63883,-66.51585 -18.88379,-101.0771 3.14982,-9.26084 10.12781,-22.38713 15.82443,-29.76729 6.7984,-8.80757 76.27401,-78.35188 83.98221,-84.06526 29.85673,-22.13006 67.44275,-27.16463 102.57526,-13.73975 9.00127,3.43957 23.28968,12.4014 31.54354,19.78441 12.86894,11.51115 25.06941,31.06066 29.99763,48.0669 6.73766,23.25026 4.8156,51.0503 -5.02619,72.69694 -6.45975,14.20796 -11.01906,19.79772 -39.7632,48.75 -15.42579,15.5375 -28.33742,28.25 -28.6925,28.25 -0.35508,0 -0.90056,-5.7375 -1.21217,-12.75 -0.31161,-7.0125 -1.35823,-16.70084 -2.32582,-21.52964 l -1.75925,-8.77964 16.56835,-16.72036 c 19.01913,-19.19361 24.88267,-27.63548 28.90699,-41.61801 4.86388,-16.89957 2.13955,-38.24122 -6.83462,-53.54055 -12.2913,-20.95443 -33.39003,-33.77223 -57.27648,-34.79632 -13.64658,-0.58508 -22.65678,1.30078 -35,7.32559 l -9.5,4.63701 -40.1378,40.13596 -40.13779,40.13596 -4.63196,9.58673 c -6.05481,12.53158 -7.90797,21.36193 -7.32697,34.91327 0.80682,18.81865 8.17418,34.76553 22.02748,47.67918 6.57986,6.13356 16.24851,12.26378 22.7954,14.45297 1.8764,0.62745 3.84715,1.53741 4.37945,2.02214 0.59492,0.54176 -4.02294,5.88316 -11.98558,13.86352 -7.12435,7.1402 -13.18487,12.9702 -13.4678,12.95554 -0.28294,-0.0146 -3.09822,-1.42852 -6.25619,-3.14193 z"
         id="path4149"
         inkscape:connector-curvature="0" />
    </g>
  </g>
</svg>
